<?xml version="1.0" encoding="iso-8859-1"?>
<!-- Generator: Adobe Illustrator 18.0.0, SVG Export Plug-In . SVG Version: 6.00 Build 0)  -->
<!DOCTYPE svg PUBLIC "-//W3C//DTD SVG 1.1//EN" "http://www.w3.org/Graphics/SVG/1.1/DTD/svg11.dtd">
<svg version="1.1" id="Capa_1" xmlns="http://www.w3.org/2000/svg" xmlns:xlink="http://www.w3.org/1999/xlink" x="0px" y="0px"
	 viewBox="0 0 297 297" style="enable-background:new 0 0 297 297;" xml:space="preserve">
<g>
	<circle cx="222.341" cy="184.473" r="18.979"/>
	<path d="M297,134.004c0.009-2.726-0.379-36.917-24.202-60.989c-14.99-15.146-35.48-22.825-60.901-22.825h-84.832
		c-7.43,0-13.453,6.023-13.453,13.453v17.592c0,7.43,6.023,13.453,13.453,13.453c7.43,0,13.453-6.023,13.453-13.453v-4.139h71.379
		c17.884,0,31.891,4.946,41.632,14.7c8.744,8.756,12.873,20.072,14.823,28.763H147.001c-47.991,0-81.649,11.102-102.897,33.941
		c-14.895,16.01-23.132,37.497-25.041,65.404h-5.611C6.023,219.904,0,225.927,0,233.357c0,7.43,6.023,13.453,13.453,13.453h270.094
		c7.43,0,13.453-6.023,13.453-13.453v-99.345C297,134.009,297,134.007,297,134.004z M46.03,219.904
		c1.631-20.743,7.38-35.907,17.772-47.077c15.658-16.828,43.649-25.362,83.199-25.362h123.093v72.439H46.03z"/>
</g>
<g>
</g>
<g>
</g>
<g>
</g>
<g>
</g>
<g>
</g>
<g>
</g>
<g>
</g>
<g>
</g>
<g>
</g>
<g>
</g>
<g>
</g>
<g>
</g>
<g>
</g>
<g>
</g>
<g>
</g>
</svg>
