<?xml version="1.0" encoding="utf-8"?>
<!-- Generator: Adobe Illustrator 21.1.0, SVG Export Plug-In . SVG Version: 6.00 Build 0)  -->
<svg version="1.1" id="Capa_1" xmlns="http://www.w3.org/2000/svg" xmlns:xlink="http://www.w3.org/1999/xlink" x="0px" y="0px"
	 viewBox="0 0 595.28 841.89" style="enable-background:new 0 0 595.28 841.89;" xml:space="preserve">
<style type="text/css">
	.st0{fill:transparent;
		animation: colo1 6s forwards;
		}
	.st1{fill:transparent;
		animation: colo2 4s forwards;
		}
	.st2{fill:none;stroke:#000000;
		stroke-width:2;
		stroke-miterlimit:10;
		stroke-dasharray:570;
		stroke-dashoffset:-570;
		animation:	anima 5s forwards;

		}
	@keyframes anima{
		from{
		stroke-dashoffset:-570;
		}
		to{
		stroke-dashoffset:0;
		}
	}
	@keyframes colo1{
		from{
		fill:transparent;
		}
		to{
		fill:#5E84BE;
		}
	}
	@keyframes colo2{
		from{
		fill:transparent;
		}
		to{
		fill:#143D69;
		}
	}
</style>
<g id="color">
	<path class="st0" d="M138.703,78.36c24.649,10.13,36.72,26.525,29.127,53.171c-4.328,15.19-17.723,25.112-37.644,27.523
		c2.078-23.635-2.252-44.271-28.208-53.802c7-4.884,12.392-9.746,16.413-16.023c12.422-19.39,1.063-53.139-28.238-57.824
		c-13.557-2.167-27.208-1.805-40.848-1.859c-7.664-0.03-15.329-0.005-23.399-0.005c0-7.665,0-15.214,0-22.837
		c0.919-0.887,2.15-0.517,3.261-0.517C59.332,6.175,89.5,5.97,119.662,6.336c9.352,0.113,18.93,0.102,27.331,5.954
		c20.554,14.321,20.975,44.886,0.609,59.858C144.982,74.074,142.271,75.875,138.703,78.36z"/>
	<path class="st1" d="M90.637,68.132c0,8.457,0,16.564,0,24.783c-8.247,2.717-16.289,5.718-23.982,9.643
		c-15.52,7.918-26.317,20.166-28.481,37.354c-2.213,17.581,1.19,34.491,15.332,47.415c7.794,7.122,17.154,11.3,26.897,14.715
		c3.567,1.25,6.769,3.694,10.905,3.244c0,8.462,0,16.566,0,24.661c-31.472,2.931-75.1-22.951-80.686-72.016
		C4.986,108.434,44.416,69.747,90.637,68.132z"/>
	<path class="st1" d="M83.895,187.263c-20.758-0.046-38.466-17.44-38.164-38.199c0.34-23.396,17.506-38.252,38.478-38.536
		c21.928-0.297,38.613,17.589,38.361,38.606C122.324,169.71,106.056,187.139,83.895,187.263z M83.927,116.714
		c-17.308,0.041-32.202,15.083-32.017,32.337c0.187,17.368,15.151,32.33,32.452,31.896c18.459-0.463,31.77-14.254,31.993-32.408
		C116.568,131.209,101.433,116.673,83.927,116.714z"/>
	<path class="st1" d="M91.749,164.683c0.058,5.914-2.861,8.968-8.568,8.964c-5.088-0.004-8.662-3.664-8.662-8.868
		c0-5.109,3.602-8.684,8.788-8.723C88.65,156.016,91.694,159.127,91.749,164.683z"/>
	<path class="st1" d="M66.642,156.253c-5.891-0.062-9.183-3.119-9.084-8.436c0.102-5.468,4.328-9.07,10.469-8.506
		c2.784,0.256,7.731,5.147,7.591,8.764C75.423,153.147,72.121,156.31,66.642,156.253z"/>
	<path class="st1" d="M101.481,156.251c-5.53-0.242-8.839-3.426-8.729-8.402c0.114-5.195,5.033-9.077,10.884-8.59
		c3.943,0.328,7.367,4.842,7.106,9.367C110.469,153.357,106.678,156.479,101.481,156.251z"/>
	<path class="st1" d="M82.609,124.135c7.49,0.292,9.917,2.341,9.353,8.671c-0.462,5.176-3.938,8.196-8.729,7.622
		c-5.819-0.697-8.884-3.383-8.692-8.943C74.719,126.343,77.367,123.93,82.609,124.135z"/>
</g>
<g id="contorno_1_">
	<path class="st2" d="M138.703,78.36c24.649,10.13,36.72,26.525,29.127,53.171c-4.328,15.19-17.723,25.112-37.644,27.523
		c2.078-23.635-2.252-44.271-28.208-53.802c7-4.884,12.392-9.746,16.413-16.023c12.422-19.39,1.063-53.139-28.238-57.824
		c-13.557-2.167-27.208-1.805-40.848-1.859c-7.664-0.03-15.329-0.005-23.399-0.005c0-7.665,0-15.214,0-22.837
		c0.919-0.887,2.15-0.517,3.261-0.517C59.332,6.175,89.5,5.97,119.662,6.336c9.352,0.113,18.93,0.102,27.331,5.954
		c20.554,14.321,20.975,44.886,0.609,59.858C144.982,74.074,142.271,75.875,138.703,78.36z"/>
	<path class="st2" d="M90.637,68.132c0,8.457,0,16.564,0,24.783c-8.247,2.717-16.289,5.718-23.982,9.643
		c-15.52,7.918-26.317,20.166-28.481,37.354c-2.213,17.581,1.19,34.491,15.332,47.415c7.794,7.122,17.154,11.3,26.897,14.715
		c3.567,1.25,6.769,3.694,10.905,3.244c0,8.462,0,16.566,0,24.661c-31.472,2.931-75.1-22.951-80.686-72.016
		C4.986,108.434,44.416,69.747,90.637,68.132z"/>
	<path class="st2" d="M83.895,187.263c-20.758-0.046-38.466-17.44-38.164-38.199c0.34-23.396,17.506-38.252,38.478-38.536
		c21.928-0.297,38.613,17.589,38.361,38.606C122.324,169.71,106.056,187.139,83.895,187.263z M83.927,116.714
		c-17.308,0.041-32.202,15.083-32.017,32.337c0.187,17.368,15.151,32.33,32.452,31.896c18.459-0.463,31.77-14.254,31.993-32.408
		C116.568,131.209,101.433,116.673,83.927,116.714z"/>
	<path class="st2" d="M91.749,164.683c0.058,5.914-2.861,8.968-8.568,8.964c-5.088-0.004-8.662-3.664-8.662-8.868
		c0-5.109,3.602-8.684,8.788-8.723C88.65,156.016,91.694,159.127,91.749,164.683z"/>
	<path class="st2" d="M66.642,156.253c-5.891-0.062-9.183-3.119-9.084-8.436c0.102-5.468,4.328-9.07,10.469-8.506
		c2.784,0.256,7.731,5.147,7.591,8.764C75.423,153.147,72.121,156.31,66.642,156.253z"/>
	<path class="st2" d="M101.481,156.251c-5.53-0.242-8.839-3.426-8.729-8.402c0.114-5.195,5.033-9.077,10.884-8.59
		c3.943,0.328,7.367,4.842,7.106,9.367C110.469,153.357,106.678,156.479,101.481,156.251z"/>
	<path class="st2" d="M82.609,124.135c7.49,0.292,9.917,2.341,9.353,8.671c-0.462,5.176-3.938,8.196-8.729,7.622
		c-5.819-0.697-8.884-3.383-8.692-8.943C74.719,126.343,77.367,123.93,82.609,124.135z"/>
</g>
</svg>
