<?xml version="1.0" encoding="utf-8"?>
<!-- Generator: Adobe Illustrator 21.1.0, SVG Export Plug-In . SVG Version: 6.00 Build 0)  -->
<svg version="1.1" xmlns="http://www.w3.org/2000/svg" xmlns:xlink="http://www.w3.org/1999/xlink" x="0px" y="0px"
	 viewBox="0 0 368.504 127.559" style="enable-background:new 0 0 368.504 127.559;" xml:space="preserve">
<style type="text/css">
	.st0{fill:#6692DA;}
	.st1{fill:#063F71;}
	.st2{fill:none;
		stroke:#000000;
		stroke-width:0.5;
		stroke-miterlimit:10;
		stroke-dasharray:570;
		stroke-dashoffset:-570;
		animation:	anima 5s forwards;

		}
	@keyframes anima{
		from{
		stroke-dashoffset:-570;
		}
		to{
		stroke-dashoffset:0;
		}
	}
	@keyframes colo1{
		from{
		fill:transparent;
		}
		to{
		fill:#5E84BE;
		}
	}
	@keyframes colo2{
		from{
		fill:transparent;
		}
		to{
		fill:#143D69;
		}
	}
</style>
<g id="colores">
	<g id="icono_2_">
		<path class="st0" d="M24.707,8.113c0.549,0.845,1.328,0.813,2.138,0.813c13.314-0.013,26.629,0.007,39.943-0.031
			c1.93-0.006,3.774,0.566,5.701,0.587c0.943,0.01,1.958,0.563,2.729,1.011c1.506,0.875,3.216,1.084,4.743,2.052
			c2.48,1.571,4.363,3.56,6.005,5.852c0.911,1.272,1.658,2.653,1.794,4.338c0.11,1.358,0.874,2.578,0.952,4.033
			c0.155,2.881-0.541,5.603-1.587,8.145c-1.163,2.826-3.042,5.237-5.919,6.754c-1.073,0.566-2.056,1.277-3.233,1.687
			c-0.85,0.296-0.835,1.111,0.083,1.596c1.19,0.63,2.477,1.074,3.72,1.604c3.219,1.371,5.886,3.41,7.749,6.42
			c1.837,2.967,2.895,6.202,2.852,9.68c-0.024,1.946,0.18,4.008-0.985,5.802c-0.14,0.215-0.085,0.547-0.165,0.811
			c-1.164,3.811-2.975,7.125-6.466,9.396c-1.002,0.652-2.117,1.211-3.004,2.076c-0.354,0.345-0.866,0.579-1.348,0.73
			c-1.75,0.546-3.517,1.036-5.278,1.545c-0.51,0.148-1.035,0.157-1.54,0.021c-0.746-0.202-1.137-0.634-0.655-1.406
			c0.426-0.682,0.458-1.423,0.469-2.19c0.043-2.903,0.491-5.851-0.261-8.688c-0.856-3.226-2.134-6.311-4.81-8.546
			c-0.636-0.531-1.106-1.195-1.811-1.698c-1.893-1.35-3.866-2.429-6.145-2.927c-0.313-0.068-0.61-0.229-0.638-0.621
			c-0.03-0.42,0.186-0.648,0.567-0.805c3.586-1.479,6.173-4.1,7.91-7.463c1.714-3.32,2.097-6.923,1.723-10.667
			c-0.303-3.039-1.475-5.732-3.079-8.172c-1.107-1.683-2.548-3.202-4.29-4.431c-1.905-1.344-3.912-2.46-6.101-3.061
			c-3.454-0.949-7.012-1.427-10.621-1.412c-6.837,0.028-13.674,0.014-20.511,0.02c-1.9,0.002-2.471-0.845-2.34-2.729
			c0.152-2.179,0.272-4.387-0.1-6.567C22.69,10.466,22.955,9.868,24.707,8.113z"/>
		<path class="st1" d="M55.203,45.121c0.079,1.397-0.077,3.073,0.104,4.752c0.167,1.553-0.66,2.481-2.394,2.422
			c-3.974-0.136-7.344,1.444-10.715,3.27c-2.763,1.496-5.006,3.579-6.994,5.895c-1.585,1.846-2.758,4.014-3.793,6.284
			c-1.07,2.346-1.535,4.755-1.993,7.224c-0.183,0.987,0.21,1.915,0.068,2.853c-0.406,2.69,0.203,5.296,0.805,7.847
			c0.412,1.745,1.292,3.404,2.13,5.038c1.008,1.965,2.374,3.662,3.806,5.292c1.145,1.303,2.582,2.332,3.956,3.409
			c1.511,1.185,3.228,2.047,4.931,2.809c1.897,0.849,3.91,1.582,6.042,1.79c1.031,0.101,2.058,0.264,3.079,0.445
			c0.732,0.13,1.081,0.576,1.013,1.365c-0.266,3.113-0.127,6.231-0.084,9.347c0.021,1.501-0.164,1.707-1.664,1.836
			c-2.112,0.182-4.113-0.325-6.075-0.992c-0.808-0.275-1.636-0.343-2.454-0.514c-2.588-0.542-4.903-1.769-7.299-2.822
			c-2.501-1.098-4.691-2.706-6.786-4.326c-2.152-1.664-4.208-3.599-5.719-5.971c-0.576-0.904-1.392-1.619-1.944-2.57
			c-1.07-1.842-2.385-3.527-2.969-5.648c-0.231-0.84-1.055-1.452-1.359-2.343c-1.132-3.314-1.629-6.756-2.299-10.176
			c-0.639-3.263,0.02-6.34,0.372-9.493c0.465-4.166,1.995-8.001,3.784-11.718c1.557-3.234,3.735-6.083,6.13-8.764
			c2.922-3.271,6.366-5.909,10.233-7.883c1.485-0.758,3.069-1.47,4.599-2.173c3.532-1.624,7.346-1.757,11.01-2.622
			c2.067-0.488,2.479,0.02,2.503,2.139c0.007,0.639-0.021,1.279-0.026,1.919C55.199,43.643,55.203,44.243,55.203,45.121z"/>
		<path class="st1" d="M69.776,77.284C69.762,87.23,61.839,95.55,51.763,95.41c-9.894-0.138-17.448-7.421-17.748-17.66
			c-0.29-9.884,7.764-17.944,17.734-18.046C61.728,59.602,69.481,67.409,69.776,77.284z M66.853,76.065
			c-0.167-2.703-1.384-6.141-4.096-8.913c-2.26-2.31-5.107-3.624-8.229-4.358c-1.27-0.298-2.553-0.701-3.863-0.38
			c-2.891,0.707-5.771,1.47-8.144,3.42c-1.906,1.566-3.629,3.393-4.458,5.679c-0.961,2.648-1.681,5.307-1.022,8.379
			c0.876,4.082,2.986,7.095,6.015,9.676c1.66,1.414,3.726,1.981,5.772,2.478c1.037,0.252,2.063,0.834,3.144,0.668
			c4.743-0.727,8.965-2.39,11.958-6.462C65.936,83.522,66.867,80.536,66.853,76.065z"/>
		<path class="st1" d="M51.827,73.686c-2.29-0.026-4.137-2.126-4.085-4.644c0.045-2.17,2.14-3.958,4.599-3.926
			c1.804,0.024,4.225,2.478,3.988,4.303C56.087,71.285,54.37,73.838,51.827,73.686z"/>
		<path class="st1" d="M47.763,85.588c-0.499-2.351,2.468-4.21,4.296-4.335c1.653-0.113,4.251,2.457,4.288,4.126
			c0.049,2.232-2.192,4.409-4.562,4.432C49.733,89.83,47.786,87.786,47.763,85.588z"/>
		<path class="st1" d="M43.547,72.393c2.123-0.004,4.108,2.252,4.09,4.647c-0.014,1.81-2.129,4.108-3.798,4.127
			c-2.375,0.026-4.517-2.053-4.475-4.361C39.403,74.752,41.632,72.152,43.547,72.393z"/>
		<path class="st1" d="M55.988,76.798c-0.242-2.276,3.096-4.505,4.571-4.408c1.569,0.103,3.864,2.871,3.757,4.568
			c-0.126,2.01-2.417,4.218-4.24,4.137C58.478,81.025,55.631,78.735,55.988,76.798z"/>
	</g>
	<g id="bluecleaner">
		<path class="st0" d="M333.365,57.246c0-4.275-0.004-8.55,0.002-12.826c0.002-1.771,0.349-2.087,2.081-2.139
			c1.472-0.044,2.94,0.098,4.42-0.128c0.842-0.129,1.673,0.239,1.872,1.259c0.128,0.659,0.481,1.104,1.113,1.258
			c0.754,0.184,1.169-0.337,1.554-0.873c0.162-0.225,0.31-0.499,0.535-0.63c0.658-0.382,1.179-1.27,2.092-0.855
			c0.921,0.419,0.489,1.347,0.513,2.042c0.066,1.916,0.017,3.835,0.032,5.753c0.009,1.199-0.45,1.891-1.721,2.167
			c-2.921,0.636-3.318,1.335-3.599,4.308c-0.391,4.149-0.081,8.298-0.199,12.444c-0.01,0.354,0.039,0.716,0.112,1.064
			c0.295,1.407,0.005,1.888-1.422,1.935c-1.996,0.065-3.995,0.028-5.993,0.01c-0.953-0.008-1.427-0.438-1.419-1.484
			c0.037-4.435,0.016-8.87,0.016-13.305C333.359,57.246,333.362,57.246,333.365,57.246z"/>
		<path class="st0" d="M116.065,72.313c-4.222-0.468-8.38-0.202-12.533-0.253c-1.175-0.014-1.554-0.406-1.501-1.63
			c0.441-10.069,0.083-20.144,0.175-30.215c0.011-1.146-0.222-2.291,0.042-3.44c0.188-0.817,0.659-1.323,1.502-1.211
			c3.147,0.417,6.305,0.156,9.456,0.179c1.751,0.012,3.412,0.386,5.045,0.88c2.401,0.726,4.345,3.541,4.443,6.052
			c0.054,1.369,0.704,2.692,0.449,4.093c-0.348,1.916-0.675,3.837-2.87,4.665c-0.935,0.353-0.926,0.96-0.277,1.776
			c0.658,0.827,1.747,1.107,2.334,2.008c1.675,2.575,1.965,5.417,1.653,8.376c-0.121,1.146-0.315,2.28-0.394,3.437
			c-0.15,2.194-1.429,3.904-3.244,4.812C119.122,72.451,117.46,72.19,116.065,72.313z M110.756,60.984c0.002,0,0.003,0,0.005,0
			c0,1.317-0.043,2.636,0.013,3.95c0.05,1.163,0.871,2.172,1.658,2.188c0.776,0.015,2.685-1.608,2.691-2.358
			c0.019-2.474,0.027-4.949-0.021-7.423c-0.019-0.963-1.652-2.076-2.767-1.988c-0.965,0.076-1.562,0.832-1.576,2.038
			C110.745,58.589,110.756,59.786,110.756,60.984z M110.76,45.639c-0.002,0-0.004,0-0.005,0c0,1-0.023,2,0.006,2.999
			c0.039,1.363,0.625,2.143,1.572,2.16c1.19,0.022,2.783-1.244,2.799-2.265c0.023-1.519-0.028-3.04,0.016-4.558
			c0.033-1.114-0.607-1.835-1.407-2.358c-0.683-0.447-1.557-0.376-2.3-0.035c-0.673,0.309-0.709,0.987-0.687,1.658
			C110.78,44.039,110.76,44.839,110.76,45.639z"/>
		<path class="st0" d="M206.66,53.685c0,3.359-0.016,6.717,0.012,10.076c0.006,0.751,0.078,1.525,0.279,2.244
			c0.221,0.788,0.685,1.403,1.66,1.477c1.208,0.091,1.833-0.629,2.329-1.531c0.272-0.493,0.373-1.079,0.24-1.633
			c-0.38-1.583-0.174-3.184-0.183-4.775c-0.006-1.146,0.567-1.665,1.721-1.678c1.719-0.019,3.439-0.027,5.158,0.01
			c1.854,0.04,2.145,0.45,2.253,2.3c0.138,2.354-0.422,4.609-0.932,6.847c-0.372,1.631-1.867,2.6-3.006,3.764
			c-1.106,1.13-2.628,1.206-3.907,1.856c-1.536,0.781-3.08,0.837-4.736,0.718c-1.128-0.081-1.931-0.931-3-1.018
			c-2.579-0.208-4.08-1.892-5.394-3.852c-0.833-1.243-1.004-2.717-1.098-4.112c-0.376-5.581-0.393-11.181-0.196-16.764
			c0.068-1.924-0.1-3.894,0.405-5.822c0.641-2.444,2.309-3.953,4.278-5.308c1.435-0.987,3.055-1.075,4.666-1.174
			c1.87-0.115,3.746-0.013,5.607,0.234c0.27,0.036,0.569,0.091,0.789,0.237c1.603,1.058,3.348,1.863,4.632,3.437
			c0.879,1.077,0.692,2.326,1.171,3.417c0.986,2.246,0.555,4.615,0.758,6.927c0.079,0.898-0.722,1.797-1.628,1.81
			c-2.039,0.028-4.079,0.033-6.117,0.006c-0.953-0.013-1.496-0.565-1.453-1.521c0.104-2.311-0.191-4.629,0.185-6.937
			c0.16-0.981-1.084-2.204-2.205-2.294c-1.002-0.08-2.27,1.276-2.276,2.504c-0.017,3.519-0.006,7.037-0.006,10.556
			C206.667,53.685,206.664,53.685,206.66,53.685z"/>
		<path class="st0" d="M140.447,55.438c0-3.558-0.001-7.116,0-10.674c0-2.224,0.462-2.688,2.625-2.677
			c1.359,0.007,2.719-0.014,4.078-0.005c1.245,0.009,2.547,1.426,2.293,2.643c-0.225,1.078-0.177,2.145-0.179,3.217
			c-0.012,5.677-0.006,11.354-0.006,17.031c0,0.558-0.069,1.139,0.281,1.625c0.402,0.557,0.656,1.411,1.6,1.138
			c0.814-0.236,1.087-0.987,1.31-1.714c0.067-0.22,0.016-0.477,0.015-0.716c-0.006-6.876-0.01-13.753-0.018-20.629
			c-0.002-1.732,0.779-2.558,2.521-2.587c1.439-0.024,2.878,0,4.318-0.002c1.667-0.003,2.594,1.11,2.342,2.794
			c-0.07,0.471-0.115,0.951-0.115,1.426c0,8.076-0.008,16.152,0.034,24.227c0.006,1.091-0.369,1.534-1.445,1.518
			c-1.919-0.028-3.838-0.019-5.757,0.004c-0.764,0.009-1.416-0.255-1.987-0.713c-0.807-0.646-1.431-0.755-2.209,0.167
			c-0.971,1.151-4.142,1.741-5.699,0.898c-0.851-0.461-1.77-0.648-2.525-1.442c-1.228-1.292-1.412-2.796-1.432-4.374
			c-0.047-3.717-0.015-7.436-0.015-11.154C140.467,55.438,140.457,55.438,140.447,55.438z"/>
		<path class="st0" d="M284.865,57.628c0-4.198-0.001-8.397,0.001-12.595c0.001-2.069,0.693-2.605,2.768-2.382
			c1.101,0.118,2.235,0.188,3.338-0.09c0.943-0.238,1.64-0.018,2.038,0.942c0.44,1.062,1.166,1.08,2.011,0.474
			c0.745-0.534,1.562-0.952,2.331-1.447c1.523-0.979,3.161-0.898,4.719,0.029c0.411,0.245,0.797,0.519,1.254,0.686
			c0.254,0.093,0.659,0.25,0.683,0.422c0.18,1.298,1.284,2.16,1.364,3.583c0.433,7.749,0.012,15.502,0.219,23.249
			c0.034,1.254-0.27,1.546-1.543,1.552c-1.719,0.008-3.439,0.027-5.158-0.006c-1.651-0.032-2.019-0.456-2.017-2.077
			c0.008-6.878,0.006-13.755,0.006-20.633c0-0.28,0.014-0.564-0.028-0.838c-0.125-0.822-0.138-1.74-1.266-1.886
			c-1.166-0.151-1.778,0.622-2.194,1.497c-0.263,0.554-0.321,1.216-0.319,1.871c0.023,6.797,0.019,13.595,0.03,20.392
			c0.002,1.431-0.229,1.684-1.655,1.686c-1.679,0.002-3.359-0.001-5.038-0.002c-1.059-0.001-1.591-0.423-1.578-1.591
			c0.045-4.278,0.018-8.556,0.018-12.835C284.853,57.628,284.859,57.628,284.865,57.628z"/>
		<path class="st0" d="M251.882,57.593c-1.792,0.072-3.587-0.067-5.377,0.221c-0.818,0.132-1.215,0.453-1.237,1.288
			c-0.064,2.35,0.187,4.702-0.176,7.053c-0.147,0.951,0.847,1.756,1.989,1.826c0.82,0.05,2.003-0.907,1.995-1.869
			c-0.011-1.267,0.709-2.531-0.12-3.835c-0.391-0.616,0.629-1.697,1.682-1.738c1.876-0.073,3.757-0.061,5.634-0.005
			c0.968,0.029,1.231,0.812,1.237,1.616c0.027,3.602-1.127,6.735-3.931,9.091c-1.223,1.028-2.86,1.29-4.364,1.445
			c-2.246,0.232-4.511,0.071-6.772-0.354c-1.31-0.246-2.183-0.992-3.003-1.792c-1.651-1.61-2.578-3.634-2.589-5.98
			c-0.023-4.716,0.038-9.432-0.02-14.147c-0.034-2.768,1.173-5.029,3.334-6.382c3.247-2.033,6.837-3.076,10.609-1.067
			c0.206,0.11,0.442,0.169,0.671,0.227c3.366,0.854,4.762,3.272,5.405,6.47c0.425,2.114,0.336,4.271,0.804,6.369
			c0.179,0.804-0.585,1.514-1.693,1.553C254.601,57.629,253.241,57.593,251.882,57.593z M248.445,50.387
			c0.008-0.875,0.01-1.748-0.236-2.601c-0.285-0.988-1.201-1.335-2.038-0.74c-0.808,0.575-1.237,1.39-1.055,2.366
			c0.133,0.714,0.141,1.416,0.161,2.129c0.029,1.064,0.565,1.515,1.659,1.568c1.117,0.054,1.479-0.557,1.507-1.529
			C248.454,51.183,248.445,50.785,248.445,50.387z"/>
		<path class="st0" d="M276.537,72.036c-0.839,0-1.68,0.03-2.517-0.009c-0.682-0.032-1.313-0.161-1.734-0.85
			c-0.467-0.763-1.076-0.712-1.664-0.069c-1.661,1.813-3.551,2.098-5.917,1.362c-1.306-0.406-2.195-1.192-3.207-1.913
			c-0.28-0.199-0.541-0.456-0.573-0.869c-0.207-2.687-0.696-5.328-0.242-8.081c0.368-2.23,1.737-3.153,3.489-4.06
			c2.2-1.139,4.65-1.694,6.767-2.994c0.909-0.558,1.369-1.441,1.411-2.496c0.042-1.077,0.033-2.158-0.001-3.236
			c-0.021-0.65-0.286-1.229-0.698-1.746c-0.451-0.567-1.075-0.694-1.714-0.624c-0.613,0.067-0.929,0.551-1.115,1.116
			c-0.36,1.093-0.199,2.22-0.202,3.331c-0.008,2.256-0.432,2.756-2.666,2.859c-1.157,0.053-2.318,0.036-3.476,0.02
			c-1.254-0.017-2.092-1.066-2.034-2.577c0.113-2.954,1.135-5.487,3.519-7.361c0.094-0.074,0.173-0.202,0.276-0.224
			c1.956-0.415,3.591-1.922,5.757-1.65c0.748,0.094,1.519-0.019,2.276,0.026c3.004,0.179,5.492,1.446,7.356,3.784
			c0.738,0.926,0.66,2.176,0.655,3.331c-0.002,0.395-0.168,0.803-0.109,1.182c0.936,6.08,0.231,12.199,0.448,18.295
			c0.018,0.516-0.014,1.027,0.111,1.546c0.28,1.169-0.217,1.815-1.437,1.914c-0.476,0.039-0.959,0.005-1.438,0.004
			c-0.44,0-0.879,0-1.319,0C276.537,72.044,276.537,72.04,276.537,72.036z M272.19,62.917c0.007,0,0.014,0,0.022,0
			c0-0.996,0.045-1.995-0.012-2.989c-0.059-1.032-0.777-1.422-1.652-0.872c-1.016,0.639-1.718,1.545-1.743,2.815
			c-0.027,1.315-0.033,2.631-0.014,3.946c0.019,1.324,0.531,1.914,1.592,1.91c1.057-0.004,1.762-0.739,1.802-1.941
			C272.215,64.832,272.19,63.874,272.19,62.917z"/>
		<path class="st0" d="M323.649,57.446c-1.399,0.137-3.2-0.184-4.986,0.202c-0.766,0.165-1.067,0.556-1.085,1.315
			c-0.057,2.391,0.202,4.788-0.176,7.176c-0.104,0.659,1.444,2.338,2.091,2.419c0.591,0.074,2.187-1.183,2.364-1.956
			c0.296-1.296,0.236-2.616,0.042-3.921c-0.189-1.277,0.375-1.987,1.667-1.991c1.559-0.005,3.119-0.011,4.678,0.004
			c1.077,0.01,1.625,0.569,1.595,1.633c-0.07,2.459-0.481,4.877-1.983,6.869c-1.308,1.734-3.011,3.084-5.359,3.126
			c-2.61,0.046-5.216,0.389-7.814-0.424c-1.521-0.476-2.558-1.469-3.45-2.589c-1.523-1.911-1.907-4.239-1.902-6.638
			c0.007-3.439-0.02-6.878,0.015-10.316c0.012-1.193,0.034-2.412,0.28-3.57c0.456-2.148,1.66-4.133,3.514-5.044
			c2.685-1.32,5.633-2.723,8.769-1.355c1.561,0.681,3.327,0.789,4.669,2.183c2.014,2.093,2.797,4.555,3.026,7.308
			c0.116,1.389-0.065,2.786,0.201,4.181c0.179,0.937-0.376,1.4-1.328,1.394C326.997,57.439,325.518,57.446,323.649,57.446z
			 M317.795,50.075c0,0.752-0.038,1.194,0.008,1.627c0.094,0.894,0.615,1.462,1.5,1.569c0.997,0.121,1.676-0.502,1.791-1.368
			c0.182-1.37,0.149-2.793-0.291-4.126c-0.199-0.604-0.536-1.259-1.431-1.184c-0.845,0.071-1.125,0.651-1.326,1.321
			C317.804,48.721,317.738,49.55,317.795,50.075z"/>
		<path class="st0" d="M165.287,57.084c0-1.039,0.095-2.089-0.018-3.116c-0.298-2.713,0.374-5.242,1.455-7.657
			c0.567-1.267,1.542-2.357,2.94-2.795c1.957-0.613,3.824-1.638,5.999-1.353c2.708,0.355,5.427,0.917,7.321,2.959
			c1.533,1.653,2.377,3.826,2.4,6.189c0.015,1.599,0.002,3.198,0.02,4.797c0.011,0.964-0.468,1.472-1.4,1.334
			c-2.775-0.411-5.556,0.239-8.334-0.115c-1.29-0.164-2.176,0.605-2.227,1.946c-0.086,2.235-0.036,4.476-0.026,6.715
			c0.002,0.54,0.335,0.978,0.576,1.432c0.32,0.605,0.74,1.4,1.491,1.087c0.872-0.363,2.224-0.425,2.254-1.78
			c0.031-1.415,0.428-2.828-0.052-4.265c-0.32-0.958,0.187-1.539,1.184-1.579c1.832-0.074,3.667,0.143,5.502-0.145
			c0.716-0.113,0.981,0.588,0.984,1.121c0.009,1.706,0.209,3.421-0.387,5.102c-1.071,3.024-3.896,5.063-7.093,5.2
			c-2.15,0.092-4.28,0.248-6.408-0.239c-2.619-0.599-4.361-2.13-5.235-4.675c-0.559-1.626-1.027-3.252-0.96-5.008
			C165.338,60.524,165.287,58.803,165.287,57.084z M173.394,50.221c0,0.636-0.038,1.118,0.008,1.592
			c0.104,1.093,0.901,1.702,2.091,1.642c1.098-0.055,1.793-0.724,1.809-1.786c0.011-0.717,0.047-1.418,0.193-2.13
			c0.222-1.08-0.643-2.588-1.693-2.995c-0.567-0.22-1.108-0.199-1.56,0.438C173.502,48.026,173.294,49.151,173.394,50.221z"/>
		<path class="st0" d="M223.768,54.131c0-5.237-0.001-10.475,0.002-15.712c0-0.517,0.037-1.026,0.127-1.544
			c0.191-1.103,0.768-1.565,1.887-1.53c1.598,0.049,3.2,0.069,4.796-0.002c2.145-0.096,2.68,1.213,2.568,3.108
			c-0.037,0.627-0.137,1.263-0.137,1.899c-0.004,9.395-0.004,18.79,0.002,28.185c0,0.516,0.018,1.04,0.107,1.546
			c0.212,1.198-0.345,2.066-1.585,2.109c-2.156,0.075-4.318,0.072-6.475,0.016c-1.068-0.028-1.314-0.797-1.31-1.763
			c0.021-5.437,0.01-10.874,0.01-16.311C223.763,54.131,223.765,54.131,223.768,54.131z"/>
		<path class="st0" d="M136.425,54.047c0,5.039-0.002,10.077,0.002,15.116c0,0.398-0.018,0.809,0.067,1.193
			c0.226,1.033-0.386,1.465-1.213,1.493c-2.117,0.072-4.238,0.057-6.357,0.015c-0.863-0.017-1.219-0.652-1.026-1.416
			c0.241-0.956,0.172-1.907,0.173-2.86c0.01-9.157-0.008-18.315,0.024-27.472c0.003-1.024-0.392-2.016-0.039-3.082
			c0.26-0.786,0.626-1.127,1.433-1.111c1.479,0.029,2.959,0.026,4.438,0.021c1.831-0.006,2.503,0.649,2.505,2.507
			c0.004,3.599-0.004,7.198-0.006,10.797C136.424,50.848,136.425,52.448,136.425,54.047z"/>
	</g>
	<g id="tintoreria">
		<path class="st1" d="M231.219,84.964c2.492-0.247,4.8,2.19,4.007,4.908c-0.146,0.498-0.416,0.818-0.86,1.077
			c-1.677,0.979-1.911,2.092-0.802,3.634c0.3,0.418,0.365,1.036,0.855,1.274c0.917,0.445,1.763,0.364,2.434-0.526
			c0.242-0.322,0.58-0.602,1.026-0.312c0.405,0.263,0.419,0.676,0.263,1.067c-0.16,0.403-0.332,0.833-0.613,1.15
			c-0.783,0.882-0.858,1.646,0.131,2.437c0.363,0.291,0.589,0.748,0.903,1.108c0.363,0.416,0.731,0.87,0.152,1.318
			c-0.481,0.371-1.034,0.34-1.515-0.135c-1.372-1.357-2.284-1.352-3.59,0.024c-0.735,0.774-1.719,0.557-2.601,0.644
			c-3.838,0.38-6.501-3.187-5.183-6.63c0.45-1.175,1.453-1.875,2.415-2.583c1.062-0.781,1.174-1.572,0.309-2.595
			c-1.609-1.905-1.573-2.629,0.207-4.269c0.145-0.134,0.328-0.281,0.378-0.454C229.465,84.934,230.348,84.862,231.219,84.964z
			 M230.834,101.184c0.294,0.016,0.759-0.043,1.224-0.186c1.9-0.583,2.654-2.23,1.515-3.831c-0.612-0.859-1.402-1.651-2.137-2.435
			c-0.947-1.011-1.945-0.806-2.847,0.274c-0.407,0.486-0.816,0.97-1.217,1.462c-0.289,0.355-0.383,0.77-0.365,1.225
			C227.07,99.276,229.046,101.176,230.834,101.184z M233.643,88.85c0.013-1.46-0.86-2.38-2.248-2.368
			c-0.999,0.008-2.133,1.162-2.168,2.205c-0.026,0.765,1.61,2.618,2.301,2.607C232.361,91.28,233.634,89.809,233.643,88.85z"/>
		<path class="st1" d="M325.687,97.469c0,1.238-0.037,2.477,0.014,3.713c0.03,0.718-0.369,0.921-0.932,0.966
			c-0.889,0.071-1.557-0.402-2.004-1.091c-0.365-0.564,0.085-1.073,0.43-1.49c0.577-0.697,0.601-1.489,0.4-2.269
			c-0.218-0.847-0.856-1.319-1.728-0.996c-1.364,0.505-2.661,1.169-4.087,1.539c-1.038,0.269-0.65,1.221-0.634,1.929
			c0.014,0.636,0.205,1.189,1.014,1.215c0.958,0.031,1.916,0.077,2.872,0.145c0.35,0.025,0.786,0.065,0.794,0.544
			c0.008,0.441-0.37,0.568-0.739,0.645c-1.223,0.255-2.461,0.334-3.693,0.139c-1.027-0.163-2.316-1.981-2.336-3.182
			c-0.019-1.134,1.2-2.918,2.18-3.165c1.657-0.419,3.307-0.875,4.98-1.221c0.967-0.2,1.197-0.843,1.21-1.635
			c0.014-0.853-0.254-1.615-1.237-1.778c-1.783-0.295-3.513-0.362-4.778,1.309c-0.282,0.373-0.649,0.771-1.2,0.613
			c-0.338-0.097-0.453-0.463-0.468-0.779c-0.027-0.549,0.141-1.014,0.746-1.206c0.224-0.071,0.496-0.166,0.624-0.34
			c1.556-2.117,3.774-1.293,5.725-1.149c1.68,0.124,2.907,2.209,2.917,4.306c0.005,1.078,0.001,2.156,0.001,3.234
			C325.735,97.469,325.711,97.469,325.687,97.469z"/>
		<path class="st1" d="M182.144,96.735c-1.069,0-1.869-0.03-2.666,0.01c-0.644,0.032-1.153,0.356-1.379,0.983
			c-0.221,0.613,0.042,1.08,0.539,1.453c0.158,0.118,0.301,0.267,0.418,0.427c1.5,2.059,3.733,2.211,5.587,0.369
			c0.26-0.259,0.543-0.457,0.889-0.588c0.487-0.183,0.958-0.272,1.261,0.262c0.297,0.523-0.044,0.824-0.397,1.214
			c-1.4,1.541-3.109,1.911-5.128,1.831c-1.913-0.076-2.957-1.095-4.076-2.467c-1.444-1.77-1.257-3.724-1.156-5.692
			c0.066-1.291,1.145-2.198,1.92-3.035c1.075-1.159,2.496-1.974,4.346-1.771c2.218,0.243,4.775,2.49,5.004,4.711
			c0.129,1.252-0.463,1.904-1.735,2.062C184.341,96.656,183.115,96.785,182.144,96.735z M177.929,93.765
			c0.349,0.895,1.109,1.3,1.938,1.364c1.46,0.113,2.941,0.15,4.397,0.031c0.723-0.059,1.443-0.73,1.113-1.508
			c-0.403-0.95-1.174-1.88-2.086-2.284c-0.942-0.417-2.119-0.107-3.181,0.018c-0.778,0.092-0.792,0.913-1.097,1.433
			C178.756,93.254,178.255,93.366,177.929,93.765z"/>
		<path class="st1" d="M210.158,91.281c-0.987-0.219-1.901,0.018-2.461,1.149c-0.208,0.42-0.719,0.473-1.125,0.632
			c-0.358,0.14-0.723,0.178-0.971-0.18c-0.253-0.365-0.043-0.66,0.194-0.963c1.525-1.95,4.945-2.854,7.254-1.883
			c0.244,0.103,0.508,0.291,0.638,0.512c0.442,0.753,0.866,1.5,1.513,2.117c0.233,0.222,0.444,0.706,0.363,0.981
			c-0.463,1.57,0.335,3.161-0.15,4.725c-0.286,0.922-0.44,1.87,0.027,2.804c0.154,0.309,0.176,0.691-0.16,0.852
			c-0.944,0.454-1.439-0.664-2.28-0.724c-0.326-0.023-0.615-0.359-0.466-0.91c0.159-0.59,0.405-1.101,0.691-1.627
			c0.323-0.596,0.636-1.312,0.076-1.898c-0.601-0.629-1.474-0.96-2.293-0.68c-1.369,0.469-2.536,1.401-4.007,1.724
			c-0.812,0.178-0.477,1.058-0.476,1.668c0.001,0.674,0.282,1.147,0.984,1.287c0.892,0.178,1.778,0.388,2.699,0.388
			c0.408,0,0.865,0.09,0.839,0.629c-0.023,0.479-0.472,0.486-0.822,0.5c-1.597,0.061-3.113,0.427-4.555-1.014
			c-1.742-1.741-1.018-4,1.364-5.084c1.338-0.608,2.756-0.989,4.213-1.203c0.079-0.012,0.164-0.015,0.234-0.048
			c0.747-0.352,1.904-0.356,1.826-1.524c-0.098-1.47-1.016-2.219-2.404-2.229C210.704,91.28,210.504,91.281,210.158,91.281z"/>
		<path class="st1" d="M266.036,102.561c-3.015-0.003-4.603-1.318-5.117-4.282c-0.197-1.134-0.218-2.263-0.176-3.434
			c0.081-2.235,1.519-3.502,3.02-4.598c1.22-0.891,2.92-0.779,4.28-0.239c3.561,1.413,5.392,6.504,3.301,9.492
			C269.728,101.809,268.733,102.564,266.036,102.561z M262.439,96.083c-0.09,1.611,0.154,3.068,1.43,4.261
			c0.938,0.876,4,1.224,4.676,0.277c1.112-1.557,2.06-3.215,1.712-5.285c-0.26-1.545-1.187-2.86-2.306-3.608
			c-2.202-1.472-5.62,0.593-5.444,3.04C262.538,95.202,262.464,95.644,262.439,96.083z"/>
		<path class="st1" d="M160.03,89.784c2.248-0.435,3.441,1.015,4.526,2.567c1.063,1.521,1.957,3.148,1.312,5.095
			c-0.623,1.878-1.366,3.746-3.163,4.827c-1.064,0.64-2.343,0.406-3.513,0.33c-2.187-0.143-3.483-1.511-4.242-3.469
			c-0.029-0.074-0.036-0.157-0.065-0.23c-0.387-0.984-1.195-1.878-0.842-3.035c0.625-2.047,1.23-4.073,3.165-5.427
			C158.138,89.79,159.077,89.889,160.03,89.784z M160.307,91.249c-1.661,0.003-3.539,1.299-3.871,2.669
			c-0.471,1.944-0.627,3.865,0.617,5.684c1.14,1.668,2.94,2.249,4.764,1.33c0.275-0.139,0.655-0.167,0.78-0.504
			c0.913-2.466,2.091-4.818,0.3-7.528C162.104,91.701,161.283,91.317,160.307,91.249z"/>
		<path class="st1" d="M142.503,97.13c-0.193-1.242,0.444-2.892-0.347-4.48c-0.782-1.57-3.245-1.845-4.43-0.568
			c-1.282,1.381-1.592,2.839-1.272,4.669c0.252,1.438,0.106,2.949,0.098,4.427c-0.004,0.792-0.501,1.128-1.253,1.127
			c-0.741-0.001-0.97-0.466-0.935-1.108c0.17-3.112-0.247-6.227,0.076-9.338c0.136-1.305,0.366-1.482,1.546-1.026
			c0.607,0.235,1.147,0.22,1.694-0.168c2.658-1.886,5.647-0.838,6.685,2.278c0.357,1.072,0.177,2.134,0.218,3.203
			c0.062,1.634-0.121,3.271,0.13,4.905c0.101,0.658-0.177,1.197-0.95,1.253c-0.769,0.056-1.241-0.295-1.255-1.093
			C142.487,99.972,142.503,98.733,142.503,97.13z"/>
		<path class="st1" d="M296.17,95.095c-0.047,1.076-0.13,2.152-0.135,3.228c-0.011,2.521,2.107,3.932,4.214,2.593
			c1.039-0.66,1.819-1.965,1.865-3.391c0.046-1.436-0.01-2.875-0.011-4.313c0-0.478-0.004-0.961,0.056-1.434
			c0.082-0.649,0.227-1.37,1.071-1.323c0.824,0.046,0.808,0.809,0.806,1.382c-0.011,3.154-0.065,6.307-0.105,9.46
			c-0.005,0.372-0.058,0.744-0.439,0.914c-0.404,0.18-0.675-0.098-0.931-0.361c-0.55-0.565-1.052-0.612-1.784-0.161
			c-3.155,1.943-6.299,0.941-6.794-2.914c-0.293-2.278-0.056-4.624-0.043-6.939c0.001-0.233,0.088-0.471,0.16-0.698
			c0.182-0.572,0.58-0.852,1.18-0.775c0.58,0.075,0.799,0.482,0.803,1.016c0.01,1.238,0.003,2.476,0.003,3.714
			C296.114,95.093,296.142,95.094,296.17,95.095z"/>
		<path class="st1" d="M258.431,99.082c0.135,1.616-1.05,2.466-2.125,3.164c-1.574,1.022-5.348,0.166-6.455-1.319
			c-1.383-1.855-2.205-3.974-1.517-6.237c0.571-1.878,1.643-3.601,3.563-4.503c1.371-0.644,2.772-0.599,4.163,0.006
			c0.757,0.329,1.307,0.909,1.821,1.51c0.383,0.449,0.579,1.033-0.002,1.478c-0.611,0.468-1.238,0.217-1.502-0.388
			c-0.793-1.817-2.246-1.61-3.743-1.349c-0.228,0.04-0.572,0.104-0.64,0.255c-0.574,1.288-1.978,2.134-2.044,3.669
			c-0.062,1.423,0.122,2.706,0.962,4.05c1.012,1.62,2.161,2.039,3.854,1.719c0.672-0.127,1.141-0.434,1.49-1.056
			C256.842,99.031,257.245,98.883,258.431,99.082z"/>
		<path class="st1" d="M278.817,89.894c1.564-0.429,2.623,0.552,3.788,1.207c0.165,0.093,0.296,0.269,0.407,0.431
			c0.356,0.516,0.466,1.058-0.108,1.478c-0.617,0.452-0.948-0.097-1.263-0.485c-0.312-0.385-0.33-1.028-0.976-1.112
			c-1.064-0.139-2.137-0.472-3.2-0.128c-1.045,0.338-1.028,1.403-1.135,2.207c-0.091,0.684,0.665,1.142,1.27,1.207
			c1.624,0.174,2.959,1.091,4.464,1.557c1.753,0.544,2.422,3.005,1.244,4.409c-1.428,1.702-4.331,2.671-6.345,1.824
			c-0.97-0.408-1.708-1.387-2.521-2.14c-0.213-0.197-0.189-0.532,0-0.776c0.225-0.292,0.576-0.346,0.867-0.191
			c0.38,0.202,0.804,0.436,1.039,0.774c1.163,1.673,2.87,1.085,4.377,1.008c1.14-0.059,1.212-1.19,1.36-2.09
			c0.147-0.897-0.542-1.193-1.163-1.432c-1.18-0.456-2.368-0.943-3.598-1.205c-1.523-0.325-2.167-1.512-2.948-2.595
			c-0.216-0.3-0.274-0.79-0.04-1.024C275.64,91.517,276.253,89.134,278.817,89.894z"/>
		<path class="st1" d="M122.683,96.185c0-1.077,0.196-2.2-0.046-3.219c-0.362-1.524-1.1-2.975,0.098-4.437
			c0.019-0.023,0.001-0.078-0.002-0.117c-0.081-0.822-0.156-1.82,0.941-1.819c1.089,0.001,0.873,1.028,0.813,1.757
			c-0.064,0.783,0.246,1.285,0.931,1.634c0.683,0.348,0.722,0.807,0.101,1.271c-0.818,0.612-1.036,1.446-1.019,2.421
			c0.028,1.555-0.015,3.111-0.004,4.667c0.008,1.089,0.309,2.041,1.324,2.645c0.335,0.199,0.738,0.439,0.516,0.937
			c-0.201,0.45-0.619,0.576-1.089,0.592c-1.361,0.046-2.549-1.178-2.593-2.74c-0.034-1.195-0.007-2.393-0.007-3.589
			C122.659,96.185,122.671,96.185,122.683,96.185z"/>
		<path class="st1" d="M190.517,96.594c0-1.639-0.058-3.281,0.018-4.916c0.065-1.406,0.458-1.596,1.686-0.969
			c0.548,0.279,0.942,0.067,1.235-0.365c0.555-0.817,1.341-0.767,2.148-0.612c0.576,0.11,0.971,0.458,0.863,1.088
			c-0.09,0.521-0.314,0.944-0.979,1.03c-2.127,0.276-3.291,1.554-3.353,3.704c-0.05,1.718-0.014,3.438-0.018,5.158
			c-0.001,0.28,0.02,0.563-0.014,0.838c-0.065,0.517-0.314,0.97-0.87,0.985c-0.63,0.016-0.765-0.546-0.774-1.021
			c-0.034-1.639-0.013-3.278-0.013-4.918C190.469,96.594,190.493,96.594,190.517,96.594z"/>
		<path class="st1" d="M148.756,96.846c-0.056-1.277-0.13-2.553-0.162-3.831c-0.017-0.674-0.189-1.263-0.692-1.726
			c-0.488-0.449-0.52-0.901,0.035-1.288c0.675-0.47,0.856-1.091,0.768-1.876c-0.083-0.737,0.078-1.496,0.986-1.433
			c0.839,0.058,0.893,0.796,0.721,1.473c-0.193,0.761,0.038,1.32,0.665,1.766c0.594,0.423,0.614,0.898,0.042,1.363
			c-0.618,0.502-0.817,1.157-0.744,1.922c0.184,1.913,0.026,3.828,0.04,5.742c0.007,0.935,0.341,1.705,1.38,1.988
			c0.422,0.115,0.899,0.361,0.815,0.89c-0.094,0.588-0.66,0.625-1.137,0.658c-1.453,0.1-2.622-0.881-2.747-2.409
			c-0.088-1.072-0.017-2.157-0.017-3.236C148.725,96.848,148.74,96.847,148.756,96.846z"/>
		<path class="st1" d="M199.089,96.447c0.107-1.394-0.155-3.148,0.153-4.901c0.15-0.851,0.611-1.017,1.327-1.006
			c0.797,0.012,1.1,0.491,0.98,1.175c-0.296,1.692,0.052,3.39-0.155,5.094c-0.161,1.326,0.039,2.701,0.122,4.052
			c0.048,0.784,0.045,1.533-0.991,1.517c-0.919-0.014-1.472-0.477-1.445-1.506C199.116,99.516,199.089,98.158,199.089,96.447z"/>
		<path class="st1" d="M287.645,98.579c0.281-1.495,0.283-3.192,0.061-4.915c-0.111-0.858-0.236-1.682-0.753-2.353
			c-0.5-0.649-0.47-1.124,0.166-1.609c0.572-0.436,0.908-0.905,0.676-1.736c-0.163-0.582,0.265-1.125,0.913-1.169
			c0.747-0.05,0.963,0.524,0.864,1.138c-0.146,0.906-0.038,1.655,0.803,2.192c0.5,0.319,0.472,0.739,0,1.051
			c-0.782,0.515-0.878,1.264-0.863,2.1c0.033,1.719,0.029,3.438,0.048,5.157c0.012,1.067,0.093,2.096,1.267,2.619
			c0.357,0.159,0.526,0.509,0.425,0.903c-0.112,0.438-0.508,0.445-0.868,0.484c-1.51,0.162-2.574-0.974-2.736-2.93
			C287.628,99.272,287.645,99.031,287.645,98.579z"/>
		<path class="st1" d="M307.474,96.703c0.071-1.593,0.096-3.189,0.226-4.777c0.114-1.403,0.442-1.58,1.656-0.954
			c0.64,0.33,0.976,0.023,1.29-0.429c0.485-0.7,1.122-0.995,1.959-0.783c0.506,0.128,0.909,0.424,0.875,0.981
			c-0.035,0.571-0.386,0.913-0.996,1c-2.039,0.292-3.248,1.595-3.295,3.618c-0.044,1.874-0.011,3.749-0.016,5.624
			c-0.002,0.605,0.029,1.367-0.74,1.413c-0.852,0.051-0.921-0.716-0.924-1.382c-0.006-1.436-0.002-2.872-0.002-4.308
			C307.497,96.705,307.486,96.704,307.474,96.703z"/>
		<path class="st1" d="M168.726,101.014c0-2.904,0.012-5.808-0.007-8.712c-0.006-0.89,0.195-1.427,1.265-1.389
			c0.786,0.028,1.575-0.187,2.24-0.701c0.183-0.141,0.427-0.21,0.649-0.294c0.675-0.255,1.412-0.212,1.611,0.508
			c0.221,0.803-0.572,1.382-1.178,1.312c-2.089-0.24-2.08,1.491-2.575,2.631c-0.581,1.337-0.313,2.825-0.321,4.253
			c-0.005,0.837,0.024,1.674,0.038,2.51c0.011,0.669-0.346,0.939-0.98,0.884C168.861,101.964,168.528,101.645,168.726,101.014z"/>
		<path class="st1" d="M131.085,96.458c0,1.516,0.007,3.033-0.004,4.549c-0.004,0.615-0.062,1.347-0.817,1.384
			c-0.809,0.04-1.003-0.723-1.029-1.36c-0.11-2.743-0.193-5.487-0.223-8.232c-0.006-0.578,0.212-1.172,0.403-1.733
			c0.126-0.371,0.373-0.767,0.855-0.695c0.496,0.075,0.75,0.46,0.759,0.942c0.027,1.475,0.024,2.951,0.033,4.426
			c0.001,0.239,0,0.479,0,0.718C131.069,96.458,131.077,96.458,131.085,96.458z"/>
		<path class="st1" d="M131.037,86.448c-0.015,0.522-0.029,1.104-0.735,1.128c-0.848,0.028-1.02-0.637-1.058-1.292
			c-0.035-0.596,0.289-0.991,0.917-0.998C130.938,85.277,130.994,85.863,131.037,86.448z"/>
		<path class="st1" d="M202.26,85.798c0.032,0.58-1.057,1.966-1.485,2.002c-0.485,0.041-0.752-0.22-0.815-0.676
			c-0.095-0.682,0.822-1.711,1.517-1.73C201.867,85.382,202.188,85.466,202.26,85.798z"/>
	</g>
	<g id="linea">
		<path class="st1" d="M353.842,80.461c-0.953,0.252-1.847,0.38-2.773,0.38c-40.32-0.01-80.64-0.01-120.959-0.014
			c-31.76-0.003-63.52-0.013-95.279-0.014c-12.6,0-25.2,0.015-37.799,0.025c-1,0.001-2.022,0.138-2.484-1.126
			c-0.657-1.803,0.162-2.85,2.312-2.85c18.04,0.003,36.08,0.013,54.12,0.013c66.64,0.001,133.28-0.004,199.919,0.012
			C354.415,76.887,354.16,76.927,353.842,80.461z"/>
	</g>
</g>
<g id="contorno">
	<g id="contorno_1_">
		<path class="st2" d="M24.707,8.113c-1.752,1.755-2.017,2.353-1.811,3.556c0.372,2.18,0.251,4.389,0.1,6.567
			c-0.131,1.884,0.44,2.731,2.34,2.729c6.837-0.006,13.674,0.008,20.511-0.02c3.609-0.015,7.167,0.463,10.621,1.412
			c2.189,0.601,4.196,1.717,6.101,3.061c1.742,1.229,3.183,2.748,4.29,4.431c1.605,2.44,2.776,5.133,3.079,8.172
			c0.373,3.744-0.009,7.347-1.723,10.667c-1.737,3.363-4.324,5.984-7.91,7.463c-0.381,0.157-0.597,0.385-0.567,0.805
			c0.028,0.392,0.326,0.553,0.638,0.621c2.28,0.498,4.253,1.578,6.145,2.927c0.705,0.503,1.175,1.167,1.811,1.698
			c2.676,2.235,3.955,5.32,4.81,8.546c0.752,2.837,0.304,5.785,0.261,8.688c-0.011,0.767-0.043,1.508-0.469,2.19
			c-0.482,0.772-0.091,1.204,0.655,1.406c0.505,0.137,1.029,0.127,1.54-0.021c1.761-0.509,3.528-0.999,5.278-1.545
			c0.482-0.15,0.995-0.385,1.348-0.73c0.888-0.866,2.002-1.424,3.004-2.076c3.491-2.271,5.302-5.586,6.466-9.396
			c0.081-0.264,0.026-0.596,0.165-0.811c1.165-1.794,0.96-3.855,0.985-5.802c0.044-3.478-1.015-6.713-2.852-9.68
			c-1.863-3.01-4.53-5.048-7.749-6.42c-1.243-0.529-2.531-0.974-3.72-1.604c-0.917-0.485-0.933-1.3-0.083-1.596
			c1.178-0.41,2.16-1.121,3.233-1.687c2.877-1.517,4.756-3.928,5.919-6.754c1.046-2.542,1.742-5.264,1.587-8.145
			c-0.078-1.455-0.842-2.675-0.952-4.033c-0.137-1.685-0.884-3.066-1.794-4.338c-1.641-2.292-3.525-4.281-6.005-5.852
			c-1.527-0.967-3.237-1.177-4.743-2.052c-0.77-0.447-1.786-1.001-2.729-1.011c-1.927-0.021-3.771-0.592-5.701-0.587
			C53.474,8.933,40.159,8.912,26.845,8.925C26.035,8.926,25.256,8.958,24.707,8.113z M55.203,45.121
			c0-0.878-0.004-1.478,0.001-2.078c0.005-0.64,0.034-1.279,0.026-1.919c-0.025-2.119-0.436-2.626-2.503-2.139
			c-3.665,0.865-7.479,0.998-11.01,2.622c-1.53,0.704-3.115,1.416-4.599,2.173c-3.867,1.974-7.311,4.611-10.233,7.883
			c-2.395,2.681-4.574,5.531-6.13,8.764c-1.79,3.717-3.32,7.552-3.784,11.718c-0.352,3.153-1.011,6.23-0.372,9.493
			c0.67,3.42,1.167,6.862,2.299,10.176c0.304,0.89,1.127,1.502,1.359,2.343c0.584,2.12,1.899,3.806,2.969,5.648
			c0.552,0.95,1.368,1.665,1.944,2.57c1.512,2.371,3.567,4.306,5.719,5.971c2.095,1.62,4.285,3.228,6.786,4.326
			c2.396,1.052,4.712,2.28,7.299,2.822c0.817,0.171,1.646,0.24,2.454,0.514c1.962,0.667,3.963,1.174,6.075,0.992
			c1.5-0.129,1.684-0.335,1.664-1.836c-0.043-3.116-0.182-6.235,0.084-9.347c0.067-0.789-0.282-1.235-1.013-1.365
			c-1.021-0.181-2.048-0.345-3.079-0.445c-2.132-0.208-4.145-0.942-6.042-1.79c-1.703-0.762-3.42-1.624-4.931-2.809
			c-1.374-1.078-2.81-2.106-3.956-3.409c-1.432-1.63-2.798-3.326-3.806-5.292c-0.838-1.634-1.718-3.293-2.13-5.038
			c-0.603-2.55-1.211-5.157-0.805-7.847c0.142-0.938-0.252-1.866-0.068-2.853c0.458-2.469,0.923-4.878,1.993-7.224
			c1.035-2.271,2.208-4.438,3.793-6.284c1.987-2.315,4.231-4.399,6.994-5.895c3.372-1.826,6.741-3.406,10.715-3.27
			c1.734,0.059,2.561-0.869,2.394-2.422C55.126,48.194,55.282,46.518,55.203,45.121z M353.842,80.461
			c0.317-3.534,0.572-3.573-2.944-3.574c-66.64-0.017-133.28-0.011-199.919-0.012c-18.04,0-36.08-0.01-54.12-0.013
			c-2.15,0-2.969,1.047-2.312,2.85c0.461,1.265,1.484,1.127,2.484,1.126c12.6-0.01,25.2-0.025,37.799-0.025
			c31.76,0.001,63.52,0.011,95.279,0.014c40.32,0.004,80.64,0.004,120.959,0.014C351.995,80.841,352.889,80.713,353.842,80.461z
			 M116.065,72.313c1.395-0.123,3.056,0.138,4.281-0.474c1.815-0.908,3.093-2.618,3.244-4.812c0.079-1.156,0.273-2.29,0.394-3.437
			c0.312-2.959,0.022-5.801-1.653-8.376c-0.586-0.901-1.675-1.181-2.334-2.008c-0.649-0.815-0.659-1.423,0.277-1.776
			c2.195-0.828,2.522-2.749,2.87-4.665c0.255-1.401-0.395-2.724-0.449-4.093c-0.098-2.512-2.042-5.326-4.443-6.052
			c-1.634-0.494-3.294-0.867-5.045-0.88c-3.151-0.022-6.309,0.238-9.456-0.179c-0.844-0.112-1.314,0.394-1.502,1.211
			c-0.265,1.149-0.032,2.294-0.042,3.44c-0.092,10.071,0.265,20.146-0.175,30.215c-0.054,1.224,0.325,1.616,1.501,1.63
			C107.685,72.111,111.843,71.845,116.065,72.313z M206.66,53.685c0.003,0,0.007,0,0.01,0c0-3.519-0.011-7.037,0.006-10.556
			c0.006-1.229,1.274-2.584,2.276-2.504c1.122,0.089,2.365,1.313,2.205,2.294c-0.376,2.308-0.081,4.626-0.185,6.937
			c-0.043,0.955,0.5,1.508,1.453,1.521c2.039,0.027,4.079,0.022,6.117-0.006c0.905-0.013,1.707-0.912,1.628-1.81
			c-0.203-2.312,0.228-4.681-0.758-6.927c-0.479-1.091-0.293-2.34-1.171-3.417c-1.284-1.574-3.029-2.379-4.632-3.437
			c-0.22-0.145-0.519-0.201-0.789-0.237c-1.862-0.247-3.738-0.348-5.607-0.234c-1.612,0.099-3.231,0.187-4.666,1.174
			c-1.969,1.354-3.638,2.863-4.278,5.308c-0.505,1.928-0.337,3.898-0.405,5.822c-0.198,5.584-0.181,11.184,0.196,16.764
			c0.094,1.396,0.264,2.869,1.098,4.112c1.314,1.96,2.815,3.643,5.394,3.852c1.068,0.086,1.872,0.936,3,1.018
			c1.655,0.119,3.2,0.064,4.736-0.718c1.279-0.65,2.801-0.727,3.907-1.856c1.139-1.164,2.634-2.133,3.006-3.764
			c0.51-2.237,1.07-4.493,0.932-6.847c-0.108-1.85-0.399-2.261-2.253-2.3c-1.719-0.037-3.439-0.029-5.158-0.01
			c-1.155,0.013-1.728,0.532-1.721,1.678c0.009,1.591-0.197,3.192,0.183,4.775c0.133,0.555,0.031,1.14-0.24,1.633
			c-0.497,0.902-1.121,1.623-2.329,1.531c-0.975-0.074-1.439-0.689-1.66-1.477c-0.201-0.719-0.273-1.493-0.279-2.244
			C206.644,60.402,206.66,57.044,206.66,53.685z M140.447,55.438c0.01,0,0.02,0,0.03,0c0,3.718-0.032,7.436,0.015,11.154
			c0.02,1.578,0.204,3.082,1.432,4.374c0.755,0.794,1.674,0.982,2.525,1.442c1.557,0.843,4.728,0.254,5.699-0.898
			c0.778-0.923,1.403-0.814,2.209-0.167c0.571,0.458,1.223,0.722,1.987,0.713c1.919-0.023,3.838-0.032,5.757-0.004
			c1.075,0.016,1.45-0.427,1.445-1.518c-0.042-8.076-0.034-16.151-0.034-24.227c0-0.476,0.045-0.955,0.115-1.426
			c0.252-1.684-0.675-2.797-2.342-2.794c-1.439,0.003-2.879-0.021-4.318,0.002c-1.741,0.029-2.523,0.855-2.521,2.587
			c0.008,6.876,0.013,13.753,0.018,20.629c0,0.24,0.052,0.497-0.015,0.716c-0.223,0.727-0.496,1.479-1.31,1.714
			c-0.944,0.273-1.198-0.581-1.6-1.138c-0.351-0.486-0.281-1.067-0.281-1.625c-0.001-5.677-0.007-11.354,0.006-17.031
			c0.002-1.072-0.046-2.139,0.179-3.217c0.254-1.217-1.048-2.635-2.293-2.643c-1.359-0.009-2.719,0.012-4.078,0.005
			c-2.163-0.011-2.624,0.453-2.625,2.677C140.446,48.322,140.447,51.88,140.447,55.438z M284.865,57.628c-0.006,0-0.012,0-0.017,0
			c0,4.278,0.027,8.557-0.018,12.835c-0.012,1.168,0.519,1.59,1.578,1.591c1.679,0.001,3.359,0.004,5.038,0.002
			c1.426-0.001,1.657-0.255,1.655-1.686c-0.011-6.797-0.007-13.595-0.03-20.392c-0.002-0.654,0.055-1.316,0.319-1.871
			c0.416-0.875,1.028-1.648,2.194-1.497c1.128,0.146,1.141,1.064,1.266,1.886c0.042,0.275,0.028,0.559,0.028,0.838
			c0,6.878,0.002,13.755-0.006,20.633c-0.002,1.621,0.366,2.046,2.017,2.077c1.719,0.033,3.439,0.014,5.158,0.006
			c1.273-0.006,1.577-0.298,1.543-1.552c-0.207-7.748,0.214-15.5-0.219-23.249c-0.079-1.423-1.184-2.285-1.364-3.583
			c-0.024-0.172-0.429-0.329-0.683-0.422c-0.457-0.167-0.843-0.441-1.254-0.686c-1.558-0.927-3.196-1.008-4.719-0.029
			c-0.77,0.495-1.587,0.913-2.331,1.447c-0.845,0.606-1.571,0.588-2.011-0.474c-0.398-0.96-1.094-1.179-2.038-0.942
			c-1.103,0.278-2.237,0.209-3.338,0.09c-2.075-0.223-2.767,0.313-2.768,2.382C284.864,49.231,284.865,53.43,284.865,57.628z
			 M251.882,57.593c1.359,0,2.719,0.036,4.076-0.011c1.108-0.038,1.872-0.749,1.693-1.553c-0.468-2.098-0.379-4.255-0.804-6.369
			c-0.643-3.198-2.039-5.616-5.405-6.47c-0.228-0.058-0.465-0.117-0.671-0.227c-3.772-2.009-7.362-0.966-10.609,1.067
			c-2.161,1.353-3.368,3.614-3.334,6.382c0.058,4.715-0.004,9.431,0.02,14.147c0.012,2.346,0.938,4.37,2.589,5.98
			c0.821,0.8,1.694,1.546,3.003,1.792c2.261,0.425,4.526,0.586,6.772,0.354c1.504-0.156,3.141-0.418,4.364-1.445
			c2.804-2.356,3.959-5.489,3.931-9.091c-0.006-0.803-0.269-1.586-1.237-1.616c-1.877-0.057-3.758-0.069-5.634,0.005
			c-1.053,0.041-2.074,1.123-1.682,1.738c0.829,1.304,0.109,2.568,0.12,3.835c0.008,0.962-1.175,1.919-1.995,1.869
			c-1.142-0.07-2.136-0.876-1.989-1.826c0.363-2.351,0.112-4.703,0.176-7.053c0.023-0.835,0.42-1.156,1.237-1.288
			C248.295,57.525,250.09,57.664,251.882,57.593z M276.537,72.036c0,0.004,0,0.008,0,0.012c0.44,0,0.879,0,1.319,0
			c0.48,0,0.962,0.034,1.438-0.004c1.22-0.099,1.717-0.745,1.437-1.914c-0.124-0.519-0.092-1.03-0.111-1.546
			c-0.218-6.096,0.488-12.215-0.448-18.295c-0.058-0.379,0.108-0.787,0.109-1.182c0.005-1.155,0.083-2.405-0.655-3.331
			c-1.864-2.338-4.352-3.605-7.356-3.784c-0.757-0.045-1.528,0.068-2.276-0.026c-2.166-0.272-3.801,1.235-5.757,1.65
			c-0.103,0.022-0.182,0.15-0.276,0.224c-2.385,1.874-3.406,4.407-3.519,7.361c-0.058,1.511,0.78,2.56,2.034,2.577
			c1.159,0.016,2.32,0.034,3.476-0.02c2.234-0.103,2.658-0.603,2.666-2.859c0.004-1.112-0.158-2.238,0.202-3.331
			c0.186-0.565,0.502-1.049,1.115-1.116c0.639-0.069,1.263,0.058,1.714,0.624c0.412,0.517,0.677,1.096,0.698,1.746
			c0.035,1.078,0.044,2.159,0.001,3.236c-0.041,1.055-0.502,1.938-1.411,2.496c-2.117,1.3-4.567,1.855-6.767,2.994
			c-1.752,0.907-3.121,1.831-3.489,4.06c-0.454,2.753,0.035,5.394,0.242,8.081c0.032,0.413,0.293,0.67,0.573,0.869
			c1.012,0.722,1.901,1.507,3.207,1.913c2.366,0.735,4.256,0.451,5.917-1.362c0.589-0.643,1.197-0.694,1.664,0.069
			c0.422,0.689,1.052,0.818,1.734,0.85C274.857,72.066,275.698,72.036,276.537,72.036z M323.649,57.446
			c1.869,0,3.348-0.007,4.828,0.003c0.951,0.006,1.507-0.457,1.328-1.394c-0.266-1.394-0.085-2.791-0.201-4.181
			c-0.23-2.753-1.013-5.215-3.026-7.308c-1.342-1.394-3.108-1.502-4.669-2.183c-3.136-1.368-6.084,0.035-8.769,1.355
			c-1.854,0.911-3.058,2.896-3.514,5.044c-0.246,1.159-0.268,2.378-0.28,3.57c-0.034,3.438-0.007,6.877-0.015,10.316
			c-0.005,2.4,0.379,4.727,1.902,6.638c0.892,1.12,1.93,2.113,3.45,2.589c2.598,0.813,5.204,0.471,7.814,0.424
			c2.347-0.042,4.051-1.392,5.359-3.126c1.502-1.991,1.912-4.409,1.983-6.869c0.031-1.064-0.518-1.622-1.595-1.633
			c-1.559-0.015-3.119-0.009-4.678-0.004c-1.292,0.004-1.856,0.714-1.667,1.991c0.193,1.305,0.253,2.625-0.042,3.921
			c-0.177,0.774-1.773,2.031-2.364,1.956c-0.647-0.081-2.195-1.76-2.091-2.419c0.378-2.388,0.119-4.785,0.176-7.176
			c0.018-0.759,0.319-1.15,1.085-1.315C320.448,57.262,322.25,57.583,323.649,57.446z M165.287,57.084
			c0,1.719,0.052,3.44-0.014,5.157c-0.067,1.756,0.401,3.381,0.96,5.008c0.874,2.545,2.616,4.076,5.235,4.675
			c2.128,0.486,4.258,0.331,6.408,0.239c3.196-0.137,6.021-2.176,7.093-5.2c0.595-1.681,0.396-3.396,0.387-5.102
			c-0.003-0.533-0.268-1.234-0.984-1.121c-1.834,0.288-3.67,0.072-5.502,0.145c-0.997,0.04-1.504,0.621-1.184,1.579
			c0.48,1.437,0.083,2.85,0.052,4.265c-0.03,1.354-1.382,1.417-2.254,1.78c-0.752,0.313-1.171-0.482-1.491-1.087
			c-0.241-0.455-0.573-0.892-0.576-1.432c-0.01-2.238-0.059-4.479,0.026-6.715c0.051-1.342,0.938-2.111,2.227-1.946
			c2.778,0.354,5.559-0.296,8.334,0.115c0.932,0.138,1.411-0.371,1.4-1.334c-0.017-1.599-0.005-3.198-0.02-4.797
			c-0.023-2.363-0.867-4.537-2.4-6.189c-1.894-2.042-4.613-2.604-7.321-2.959c-2.176-0.286-4.042,0.74-5.999,1.353
			c-1.398,0.438-2.373,1.528-2.94,2.795c-1.081,2.415-1.753,4.944-1.455,7.657C165.382,54.995,165.288,56.044,165.287,57.084z
			 M223.768,54.131c-0.003,0-0.005,0-0.008,0c0,5.437,0.011,10.874-0.01,16.311c-0.004,0.966,0.242,1.735,1.31,1.763
			c2.157,0.056,4.319,0.059,6.475-0.016c1.24-0.043,1.797-0.911,1.585-2.109c-0.09-0.506-0.107-1.03-0.107-1.546
			c-0.006-9.395-0.006-18.79-0.002-28.185c0-0.636,0.1-1.272,0.137-1.899c0.112-1.895-0.423-3.204-2.568-3.108
			c-1.596,0.072-3.199,0.052-4.796,0.002c-1.119-0.035-1.695,0.427-1.887,1.53c-0.09,0.519-0.127,1.027-0.127,1.544
			C223.766,43.656,223.768,48.893,223.768,54.131z M333.365,57.246c-0.003,0-0.006,0-0.009,0c0,4.435,0.021,8.87-0.016,13.305
			c-0.009,1.046,0.465,1.475,1.419,1.484c1.998,0.018,3.997,0.056,5.993-0.01c1.427-0.047,1.717-0.527,1.422-1.935
			c-0.073-0.348-0.122-0.71-0.112-1.064c0.118-4.146-0.192-8.295,0.199-12.444c0.28-2.973,0.677-3.672,3.599-4.308
			c1.271-0.277,1.731-0.969,1.721-2.167c-0.015-1.918,0.034-3.837-0.032-5.753c-0.024-0.695,0.408-1.624-0.513-2.042
			c-0.913-0.415-1.434,0.473-2.092,0.855c-0.225,0.131-0.374,0.405-0.535,0.63c-0.386,0.535-0.8,1.056-1.554,0.873
			c-0.632-0.154-0.984-0.599-1.113-1.258c-0.199-1.02-1.03-1.388-1.872-1.259c-1.48,0.226-2.949,0.084-4.42,0.128
			c-1.733,0.052-2.079,0.368-2.081,2.139C333.362,48.696,333.365,52.971,333.365,57.246z M69.776,77.284
			c-0.295-9.876-8.047-17.682-18.026-17.58c-9.97,0.102-18.024,8.162-17.734,18.046c0.3,10.239,7.853,17.522,17.748,17.66
			C61.839,95.55,69.762,87.23,69.776,77.284z M136.425,54.047c0-1.6-0.001-3.199,0-4.799c0.002-3.599,0.01-7.198,0.006-10.797
			c-0.002-1.858-0.674-2.513-2.505-2.507c-1.479,0.005-2.959,0.008-4.438-0.021c-0.807-0.016-1.173,0.325-1.433,1.111
			c-0.353,1.065,0.043,2.058,0.039,3.082c-0.031,9.157-0.014,18.315-0.024,27.472c-0.001,0.953,0.068,1.903-0.173,2.86
			c-0.192,0.764,0.163,1.399,1.026,1.416c2.118,0.042,4.24,0.056,6.357-0.015c0.828-0.028,1.44-0.46,1.213-1.493
			c-0.084-0.384-0.066-0.794-0.067-1.193C136.423,64.125,136.424,59.086,136.425,54.047z M231.219,84.964
			c-0.872-0.102-1.754-0.029-2.087,1.136c-0.05,0.174-0.233,0.321-0.378,0.454c-1.78,1.64-1.816,2.364-0.207,4.269
			c0.864,1.023,0.752,1.814-0.309,2.595c-0.962,0.708-1.965,1.408-2.415,2.583c-1.318,3.442,1.345,7.01,5.183,6.63
			c0.882-0.087,1.866,0.13,2.601-0.644c1.306-1.376,2.219-1.381,3.59-0.024c0.48,0.475,1.034,0.506,1.515,0.135
			c0.579-0.447,0.211-0.901-0.152-1.318c-0.313-0.36-0.539-0.817-0.903-1.108c-0.989-0.791-0.914-1.555-0.131-2.437
			c0.281-0.317,0.453-0.747,0.613-1.15c0.156-0.392,0.142-0.804-0.263-1.067c-0.446-0.289-0.783-0.009-1.026,0.312
			c-0.671,0.89-1.517,0.971-2.434,0.526c-0.49-0.238-0.554-0.856-0.855-1.274c-1.109-1.542-0.874-2.654,0.802-3.634
			c0.444-0.259,0.715-0.579,0.86-1.077C236.019,87.154,233.711,84.716,231.219,84.964z M325.687,97.469c0.024,0,0.048,0,0.072,0
			c0-1.078,0.004-2.156-0.001-3.234c-0.01-2.097-1.237-4.182-2.917-4.306c-1.951-0.144-4.169-0.968-5.725,1.149
			c-0.128,0.174-0.4,0.269-0.624,0.34c-0.606,0.192-0.773,0.656-0.746,1.206c0.015,0.315,0.13,0.682,0.468,0.779
			c0.551,0.158,0.918-0.241,1.2-0.613c1.265-1.672,2.995-1.604,4.778-1.309c0.983,0.163,1.251,0.925,1.237,1.778
			c-0.013,0.791-0.243,1.434-1.21,1.635c-1.672,0.346-3.323,0.802-4.98,1.221c-0.979,0.248-2.199,2.032-2.18,3.165
			c0.02,1.201,1.309,3.019,2.336,3.182c1.232,0.195,2.469,0.116,3.693-0.139c0.369-0.077,0.747-0.204,0.739-0.645
			c-0.008-0.479-0.444-0.519-0.794-0.544c-0.956-0.068-1.914-0.114-2.872-0.145c-0.809-0.026-1-0.579-1.014-1.215
			c-0.016-0.708-0.403-1.66,0.634-1.929c1.426-0.37,2.723-1.034,4.087-1.539c0.872-0.323,1.51,0.148,1.728,0.996
			c0.201,0.78,0.176,1.573-0.4,2.269c-0.344,0.416-0.795,0.926-0.43,1.49c0.447,0.689,1.114,1.162,2.004,1.091
			c0.563-0.045,0.962-0.248,0.932-0.966C325.65,99.946,325.687,98.707,325.687,97.469z M182.144,96.735
			c0.971,0.05,2.197-0.079,3.427-0.232c1.272-0.158,1.864-0.81,1.735-2.062c-0.229-2.22-2.786-4.468-5.004-4.711
			c-1.85-0.202-3.271,0.612-4.346,1.771c-0.776,0.836-1.855,1.743-1.92,3.035c-0.101,1.968-0.288,3.922,1.156,5.692
			c1.119,1.372,2.163,2.391,4.076,2.467c2.02,0.081,3.729-0.289,5.128-1.831c0.354-0.39,0.695-0.69,0.397-1.214
			c-0.303-0.534-0.774-0.445-1.261-0.262c-0.346,0.13-0.629,0.329-0.889,0.588c-1.855,1.842-4.087,1.69-5.587-0.369
			c-0.116-0.16-0.26-0.309-0.418-0.427c-0.497-0.373-0.76-0.84-0.539-1.453c0.226-0.627,0.735-0.951,1.379-0.983
			C180.275,96.705,181.075,96.735,182.144,96.735z M210.158,91.281c0.346,0,0.546-0.001,0.746,0
			c1.388,0.009,2.306,0.759,2.404,2.229c0.078,1.168-1.079,1.173-1.826,1.524c-0.07,0.033-0.155,0.037-0.234,0.048
			c-1.458,0.215-2.876,0.595-4.213,1.203c-2.382,1.083-3.106,3.343-1.364,5.084c1.442,1.441,2.958,1.075,4.555,1.014
			c0.35-0.013,0.799-0.02,0.822-0.5c0.026-0.539-0.431-0.629-0.839-0.629c-0.921,0-1.807-0.21-2.699-0.388
			c-0.702-0.14-0.983-0.613-0.984-1.287c-0.001-0.61-0.336-1.49,0.476-1.668c1.471-0.323,2.637-1.256,4.007-1.724
			c0.818-0.28,1.691,0.05,2.293,0.68c0.56,0.586,0.246,1.302-0.076,1.898c-0.285,0.527-0.532,1.038-0.691,1.627
			c-0.148,0.551,0.14,0.887,0.466,0.91c0.841,0.06,1.336,1.178,2.28,0.724c0.336-0.162,0.315-0.543,0.16-0.852
			c-0.467-0.934-0.312-1.883-0.027-2.804c0.485-1.564-0.313-3.154,0.15-4.725c0.081-0.275-0.129-0.759-0.363-0.981
			c-0.648-0.617-1.071-1.364-1.513-2.117c-0.13-0.221-0.393-0.409-0.638-0.512c-2.309-0.971-5.73-0.067-7.254,1.883
			c-0.237,0.303-0.447,0.598-0.194,0.963c0.248,0.359,0.614,0.321,0.971,0.18c0.405-0.159,0.917-0.212,1.125-0.632
			C208.257,91.299,209.171,91.062,210.158,91.281z M266.036,102.561c2.697,0.003,3.692-0.752,5.308-3.062
			c2.091-2.987,0.26-8.079-3.301-9.492c-1.36-0.54-3.061-0.651-4.28,0.239c-1.501,1.096-2.938,2.363-3.02,4.598
			c-0.043,1.17-0.021,2.3,0.176,3.434C261.433,101.243,263.022,102.558,266.036,102.561z M160.03,89.784
			c-0.953,0.105-1.892,0.006-2.823,0.657c-1.935,1.353-2.54,3.379-3.165,5.427c-0.353,1.158,0.455,2.051,0.842,3.035
			c0.029,0.074,0.036,0.156,0.065,0.23c0.759,1.958,2.055,3.326,4.242,3.469c1.17,0.077,2.448,0.311,3.513-0.33
			c1.797-1.081,2.541-2.949,3.163-4.827c0.646-1.947-0.249-3.574-1.312-5.095C163.471,90.798,162.278,89.349,160.03,89.784z
			 M142.503,97.13c0,1.603-0.016,2.842,0.006,4.081c0.014,0.798,0.485,1.149,1.255,1.093c0.773-0.056,1.051-0.595,0.95-1.253
			c-0.25-1.634-0.068-3.271-0.13-4.905c-0.04-1.069,0.139-2.131-0.218-3.203c-1.038-3.116-4.027-4.164-6.685-2.278
			c-0.547,0.388-1.087,0.403-1.694,0.168c-1.18-0.456-1.411-0.279-1.546,1.026c-0.323,3.111,0.094,6.227-0.076,9.338
			c-0.035,0.642,0.194,1.107,0.935,1.108c0.751,0.001,1.249-0.335,1.253-1.127c0.007-1.478,0.154-2.99-0.098-4.427
			c-0.321-1.83-0.01-3.288,1.272-4.669c1.185-1.277,3.648-1.002,4.43,0.568C142.947,94.238,142.31,95.888,142.503,97.13z
			 M296.17,95.095c-0.028-0.001-0.056-0.001-0.084-0.002c0-1.238,0.007-2.476-0.003-3.714c-0.004-0.534-0.223-0.941-0.803-1.016
			c-0.6-0.078-0.998,0.203-1.18,0.775c-0.073,0.227-0.159,0.465-0.16,0.698c-0.013,2.315-0.249,4.661,0.043,6.939
			c0.495,3.855,3.639,4.858,6.794,2.914c0.732-0.451,1.235-0.403,1.784,0.161c0.256,0.263,0.526,0.541,0.931,0.361
			c0.381-0.17,0.435-0.542,0.439-0.914c0.04-3.153,0.094-6.307,0.105-9.46c0.002-0.573,0.018-1.335-0.806-1.382
			c-0.844-0.048-0.989,0.674-1.071,1.323c-0.06,0.473-0.056,0.955-0.056,1.434c0.001,1.438,0.056,2.877,0.011,4.313
			c-0.045,1.426-0.825,2.73-1.865,3.391c-2.107,1.339-4.225-0.073-4.214-2.593C296.04,97.247,296.123,96.171,296.17,95.095z
			 M258.431,99.082c-1.186-0.199-1.588-0.05-2.176,0.998c-0.349,0.622-0.818,0.929-1.49,1.056c-1.693,0.32-2.842-0.099-3.854-1.719
			c-0.84-1.344-1.024-2.627-0.962-4.05c0.067-1.534,1.47-2.381,2.044-3.669c0.068-0.152,0.412-0.216,0.64-0.255
			c1.497-0.261,2.949-0.468,3.743,1.349c0.264,0.605,0.891,0.856,1.502,0.388c0.581-0.445,0.385-1.029,0.002-1.478
			c-0.513-0.601-1.063-1.181-1.821-1.51c-1.391-0.604-2.792-0.65-4.163-0.006c-1.92,0.902-2.992,2.626-3.563,4.503
			c-0.688,2.264,0.134,4.382,1.517,6.237c1.107,1.485,4.881,2.342,6.455,1.319C257.381,101.548,258.565,100.698,258.431,99.082z
			 M278.817,89.894c-2.564-0.76-3.177,1.622-4.48,2.923c-0.235,0.234-0.176,0.725,0.04,1.024c0.781,1.083,1.425,2.27,2.948,2.595
			c1.23,0.262,2.418,0.75,3.598,1.205c0.621,0.24,1.31,0.535,1.163,1.432c-0.148,0.9-0.22,2.031-1.36,2.09
			c-1.507,0.078-3.214,0.666-4.377-1.008c-0.235-0.338-0.659-0.572-1.039-0.774c-0.291-0.155-0.642-0.101-0.867,0.191
			c-0.189,0.245-0.212,0.579,0,0.776c0.813,0.754,1.55,1.733,2.521,2.14c2.014,0.847,4.916-0.122,6.345-1.824
			c1.177-1.403,0.509-3.865-1.244-4.409c-1.505-0.467-2.84-1.384-4.464-1.557c-0.605-0.065-1.362-0.523-1.27-1.207
			c0.107-0.804,0.091-1.868,1.135-2.207c1.062-0.344,2.136-0.011,3.2,0.128c0.646,0.084,0.664,0.728,0.976,1.112
			c0.314,0.387,0.645,0.937,1.263,0.485c0.574-0.42,0.463-0.962,0.108-1.478c-0.111-0.162-0.242-0.338-0.407-0.431
			C281.44,90.446,280.381,89.466,278.817,89.894z M122.683,96.185c-0.012,0-0.024,0-0.037,0c0,1.196-0.027,2.394,0.007,3.589
			c0.044,1.562,1.233,2.786,2.593,2.74c0.47-0.016,0.889-0.141,1.089-0.592c0.222-0.498-0.181-0.738-0.516-0.937
			c-1.015-0.604-1.316-1.556-1.324-2.645c-0.011-1.555,0.031-3.112,0.004-4.667c-0.017-0.975,0.201-1.809,1.019-2.421
			c0.621-0.464,0.581-0.923-0.101-1.271c-0.685-0.349-0.995-0.85-0.931-1.634c0.06-0.729,0.276-1.756-0.813-1.757
			c-1.097-0.001-1.022,0.997-0.941,1.819c0.004,0.04,0.021,0.094,0.002,0.117c-1.198,1.463-0.46,2.914-0.098,4.437
			C122.88,93.985,122.683,95.108,122.683,96.185z M190.517,96.594c-0.024,0-0.048,0-0.072,0c0,1.639-0.021,3.279,0.013,4.918
			c0.01,0.476,0.144,1.037,0.774,1.021c0.556-0.014,0.805-0.468,0.87-0.985c0.035-0.276,0.014-0.559,0.014-0.838
			c0.003-1.719-0.032-3.44,0.018-5.158c0.062-2.149,1.225-3.428,3.353-3.704c0.664-0.086,0.889-0.508,0.979-1.03
			c0.108-0.629-0.287-0.977-0.863-1.088c-0.807-0.154-1.593-0.205-2.148,0.612c-0.293,0.431-0.687,0.644-1.235,0.365
			c-1.228-0.626-1.621-0.437-1.686,0.969C190.46,93.313,190.517,94.955,190.517,96.594z M148.756,96.846
			c-0.015,0.001-0.031,0.002-0.046,0.002c0,1.079-0.071,2.164,0.017,3.236c0.125,1.528,1.294,2.509,2.747,2.409
			c0.477-0.033,1.043-0.07,1.137-0.658c0.085-0.529-0.393-0.775-0.815-0.89c-1.039-0.283-1.373-1.053-1.38-1.988
			c-0.015-1.914,0.143-3.829-0.04-5.742c-0.074-0.766,0.126-1.42,0.744-1.922c0.572-0.465,0.552-0.941-0.042-1.363
			c-0.627-0.446-0.858-1.005-0.665-1.766c0.172-0.678,0.117-1.415-0.721-1.473c-0.908-0.063-1.069,0.697-0.986,1.433
			c0.088,0.785-0.093,1.405-0.768,1.876c-0.556,0.387-0.523,0.839-0.035,1.288c0.503,0.463,0.675,1.053,0.692,1.726
			C148.626,94.293,148.699,95.569,148.756,96.846z M199.089,96.447c0,1.711,0.027,3.069-0.009,4.425
			c-0.027,1.028,0.526,1.491,1.445,1.506c1.036,0.016,1.038-0.733,0.991-1.517c-0.082-1.351-0.283-2.725-0.122-4.052
			c0.207-1.704-0.141-3.402,0.155-5.094c0.12-0.683-0.183-1.163-0.98-1.175c-0.715-0.011-1.177,0.155-1.327,1.006
			C198.933,93.299,199.196,95.053,199.089,96.447z M287.645,98.579c0,0.451-0.017,0.693,0.003,0.931
			c0.161,1.956,1.226,3.092,2.736,2.93c0.36-0.039,0.756-0.046,0.868-0.484c0.101-0.394-0.067-0.744-0.425-0.903
			c-1.174-0.523-1.255-1.552-1.267-2.619c-0.02-1.719-0.016-3.438-0.048-5.157c-0.016-0.836,0.081-1.585,0.863-2.1
			c0.473-0.312,0.501-0.731,0-1.051c-0.841-0.537-0.949-1.285-0.803-2.192c0.099-0.613-0.117-1.188-0.864-1.138
			c-0.648,0.044-1.076,0.587-0.913,1.169c0.232,0.831-0.104,1.3-0.676,1.736c-0.636,0.485-0.667,0.96-0.166,1.609
			c0.517,0.671,0.643,1.495,0.753,2.353C287.928,95.387,287.926,97.084,287.645,98.579z M307.474,96.703
			c0.011,0.001,0.022,0.002,0.033,0.002c0,1.436-0.004,2.872,0.002,4.308c0.003,0.667,0.072,1.433,0.924,1.382
			c0.77-0.046,0.739-0.808,0.74-1.413c0.005-1.875-0.029-3.75,0.016-5.624c0.048-2.023,1.256-3.325,3.295-3.618
			c0.61-0.087,0.961-0.43,0.996-1c0.034-0.557-0.369-0.853-0.875-0.981c-0.837-0.212-1.474,0.083-1.959,0.783
			c-0.314,0.453-0.65,0.759-1.29,0.429c-1.215-0.626-1.542-0.449-1.656,0.954C307.571,93.514,307.545,95.111,307.474,96.703z
			 M168.726,101.014c-0.198,0.631,0.135,0.95,0.741,1.003c0.634,0.055,0.991-0.215,0.98-0.884c-0.014-0.837-0.043-1.674-0.038-2.51
			c0.009-1.428-0.259-2.916,0.321-4.253c0.495-1.14,0.486-2.871,2.575-2.631c0.606,0.07,1.399-0.509,1.178-1.312
			c-0.199-0.721-0.936-0.763-1.611-0.508c-0.223,0.084-0.466,0.152-0.649,0.294c-0.664,0.514-1.453,0.729-2.24,0.701
			c-1.07-0.038-1.271,0.499-1.265,1.389C168.738,95.205,168.726,98.11,168.726,101.014z M131.085,96.458c-0.008,0-0.016,0-0.024,0
			c0-0.239,0.001-0.479,0-0.718c-0.008-1.475-0.006-2.951-0.033-4.426c-0.009-0.482-0.263-0.868-0.759-0.942
			c-0.482-0.073-0.729,0.324-0.855,0.695c-0.19,0.561-0.409,1.155-0.403,1.733c0.03,2.745,0.113,5.489,0.223,8.232
			c0.026,0.637,0.219,1.4,1.029,1.36c0.755-0.037,0.813-0.769,0.817-1.384C131.092,99.49,131.085,97.974,131.085,96.458z
			 M131.037,86.448c-0.042-0.585-0.099-1.171-0.876-1.162c-0.628,0.007-0.952,0.402-0.917,0.998c0.038,0.655,0.21,1.32,1.058,1.292
			C131.008,87.552,131.021,86.97,131.037,86.448z M202.26,85.798c-0.073-0.331-0.393-0.415-0.783-0.404
			c-0.695,0.02-1.611,1.048-1.517,1.73c0.063,0.456,0.33,0.718,0.815,0.676C201.203,87.763,202.292,86.378,202.26,85.798z"/>
		<path class="st2" d="M24.707,8.113c0.549,0.845,1.328,0.813,2.138,0.813c13.314-0.013,26.629,0.007,39.943-0.031
			c1.93-0.006,3.774,0.566,5.701,0.587c0.943,0.01,1.958,0.563,2.729,1.011c1.506,0.875,3.216,1.084,4.743,2.052
			c2.48,1.571,4.363,3.56,6.005,5.852c0.911,1.272,1.658,2.653,1.794,4.338c0.11,1.358,0.874,2.578,0.952,4.033
			c0.155,2.881-0.541,5.603-1.587,8.145c-1.163,2.826-3.042,5.237-5.919,6.754c-1.073,0.566-2.056,1.277-3.233,1.687
			c-0.85,0.296-0.835,1.111,0.083,1.596c1.19,0.63,2.477,1.074,3.72,1.604c3.219,1.371,5.886,3.41,7.749,6.42
			c1.837,2.967,2.895,6.202,2.852,9.68c-0.024,1.946,0.18,4.008-0.985,5.802c-0.14,0.215-0.085,0.547-0.165,0.811
			c-1.164,3.811-2.975,7.125-6.466,9.396c-1.002,0.652-2.117,1.211-3.004,2.076c-0.354,0.345-0.866,0.579-1.348,0.73
			c-1.75,0.546-3.517,1.036-5.278,1.545c-0.51,0.148-1.035,0.157-1.54,0.021c-0.746-0.202-1.137-0.634-0.655-1.406
			c0.426-0.682,0.458-1.423,0.469-2.19c0.043-2.903,0.491-5.851-0.261-8.688c-0.856-3.226-2.134-6.311-4.81-8.546
			c-0.636-0.531-1.106-1.195-1.811-1.698c-1.893-1.35-3.866-2.429-6.145-2.927c-0.313-0.068-0.61-0.229-0.638-0.621
			c-0.03-0.42,0.186-0.648,0.567-0.805c3.586-1.479,6.173-4.1,7.91-7.463c1.714-3.32,2.097-6.923,1.723-10.667
			c-0.303-3.039-1.475-5.732-3.079-8.172c-1.107-1.683-2.548-3.202-4.29-4.431c-1.905-1.344-3.912-2.46-6.101-3.061
			c-3.454-0.949-7.012-1.427-10.621-1.412c-6.837,0.028-13.674,0.014-20.511,0.02c-1.9,0.002-2.471-0.845-2.34-2.729
			c0.152-2.179,0.272-4.387-0.1-6.567C22.69,10.466,22.955,9.868,24.707,8.113z"/>
		<path class="st2" d="M55.203,45.121c0.079,1.397-0.077,3.073,0.104,4.752c0.167,1.553-0.66,2.481-2.394,2.422
			c-3.974-0.136-7.344,1.444-10.715,3.27c-2.763,1.496-5.006,3.579-6.994,5.895c-1.585,1.846-2.758,4.014-3.793,6.284
			c-1.07,2.346-1.535,4.755-1.993,7.224c-0.183,0.987,0.21,1.915,0.068,2.853c-0.406,2.69,0.203,5.296,0.805,7.847
			c0.412,1.745,1.292,3.404,2.13,5.038c1.008,1.965,2.374,3.662,3.806,5.292c1.145,1.303,2.582,2.332,3.956,3.409
			c1.511,1.185,3.228,2.047,4.931,2.809c1.897,0.849,3.91,1.582,6.042,1.79c1.031,0.101,2.058,0.264,3.079,0.445
			c0.732,0.13,1.081,0.576,1.013,1.365c-0.266,3.113-0.127,6.231-0.084,9.347c0.021,1.501-0.164,1.707-1.664,1.836
			c-2.112,0.182-4.113-0.325-6.075-0.992c-0.808-0.275-1.636-0.343-2.454-0.514c-2.588-0.542-4.903-1.769-7.299-2.822
			c-2.501-1.098-4.691-2.706-6.786-4.326c-2.152-1.664-4.208-3.599-5.719-5.971c-0.576-0.904-1.392-1.619-1.944-2.57
			c-1.07-1.842-2.385-3.527-2.969-5.648c-0.231-0.84-1.055-1.452-1.359-2.343c-1.132-3.314-1.629-6.756-2.299-10.176
			c-0.639-3.263,0.02-6.34,0.372-9.493c0.465-4.166,1.995-8.001,3.784-11.718c1.557-3.234,3.735-6.083,6.13-8.764
			c2.922-3.271,6.366-5.909,10.233-7.883c1.485-0.758,3.069-1.47,4.599-2.173c3.532-1.624,7.346-1.757,11.01-2.622
			c2.067-0.488,2.479,0.02,2.503,2.139c0.007,0.639-0.021,1.279-0.026,1.919C55.199,43.643,55.203,44.243,55.203,45.121z"/>
		<path class="st2" d="M353.842,80.461c-0.953,0.252-1.847,0.38-2.773,0.38c-40.32-0.01-80.64-0.01-120.959-0.014
			c-31.76-0.003-63.52-0.013-95.279-0.014c-12.6,0-25.2,0.015-37.799,0.025c-1,0.001-2.022,0.138-2.484-1.126
			c-0.657-1.803,0.162-2.85,2.312-2.85c18.04,0.003,36.08,0.013,54.12,0.013c66.64,0.001,133.28-0.004,199.919,0.012
			C354.415,76.887,354.16,76.927,353.842,80.461z"/>
		<path class="st2" d="M116.065,72.313c-4.222-0.468-8.38-0.202-12.533-0.253c-1.175-0.014-1.554-0.406-1.501-1.63
			c0.441-10.069,0.083-20.144,0.175-30.215c0.011-1.146-0.222-2.291,0.042-3.44c0.188-0.817,0.659-1.323,1.502-1.211
			c3.147,0.417,6.305,0.156,9.456,0.179c1.751,0.012,3.412,0.386,5.045,0.88c2.401,0.726,4.345,3.541,4.443,6.052
			c0.054,1.369,0.704,2.692,0.449,4.093c-0.348,1.916-0.675,3.837-2.87,4.665c-0.935,0.353-0.926,0.96-0.277,1.776
			c0.658,0.827,1.747,1.107,2.334,2.008c1.675,2.575,1.965,5.417,1.653,8.376c-0.121,1.146-0.315,2.28-0.394,3.437
			c-0.15,2.194-1.429,3.904-3.244,4.812C119.122,72.451,117.46,72.19,116.065,72.313z M110.756,60.984c0.002,0,0.003,0,0.005,0
			c0,1.317-0.043,2.636,0.013,3.95c0.05,1.163,0.871,2.172,1.658,2.188c0.776,0.015,2.685-1.608,2.691-2.358
			c0.019-2.474,0.027-4.949-0.021-7.423c-0.019-0.963-1.652-2.076-2.767-1.988c-0.965,0.076-1.562,0.832-1.576,2.038
			C110.745,58.589,110.756,59.786,110.756,60.984z M110.76,45.639c-0.002,0-0.004,0-0.005,0c0,1-0.023,2,0.006,2.999
			c0.039,1.363,0.625,2.143,1.572,2.16c1.19,0.022,2.783-1.244,2.799-2.265c0.023-1.519-0.028-3.04,0.016-4.558
			c0.033-1.114-0.607-1.835-1.407-2.358c-0.683-0.447-1.557-0.376-2.3-0.035c-0.673,0.309-0.709,0.987-0.687,1.658
			C110.78,44.039,110.76,44.839,110.76,45.639z"/>
		<path class="st2" d="M206.66,53.685c0,3.359-0.016,6.717,0.012,10.076c0.006,0.751,0.078,1.525,0.279,2.244
			c0.221,0.788,0.685,1.403,1.66,1.477c1.208,0.091,1.833-0.629,2.329-1.531c0.272-0.493,0.373-1.079,0.24-1.633
			c-0.38-1.583-0.174-3.184-0.183-4.775c-0.006-1.146,0.567-1.665,1.721-1.678c1.719-0.019,3.439-0.027,5.158,0.01
			c1.854,0.04,2.145,0.45,2.253,2.3c0.138,2.354-0.422,4.609-0.932,6.847c-0.372,1.631-1.867,2.6-3.006,3.764
			c-1.106,1.13-2.628,1.206-3.907,1.856c-1.536,0.781-3.08,0.837-4.736,0.718c-1.128-0.081-1.931-0.931-3-1.018
			c-2.579-0.208-4.08-1.892-5.394-3.852c-0.833-1.243-1.004-2.717-1.098-4.112c-0.376-5.581-0.393-11.181-0.196-16.764
			c0.068-1.924-0.1-3.894,0.405-5.822c0.641-2.444,2.309-3.953,4.278-5.308c1.435-0.987,3.055-1.075,4.666-1.174
			c1.87-0.115,3.746-0.013,5.607,0.234c0.27,0.036,0.569,0.091,0.789,0.237c1.603,1.058,3.348,1.863,4.632,3.437
			c0.879,1.077,0.692,2.326,1.171,3.417c0.986,2.246,0.555,4.615,0.758,6.927c0.079,0.898-0.722,1.797-1.628,1.81
			c-2.039,0.028-4.079,0.033-6.117,0.006c-0.953-0.013-1.496-0.565-1.453-1.521c0.104-2.311-0.191-4.629,0.185-6.937
			c0.16-0.981-1.084-2.204-2.205-2.294c-1.002-0.08-2.27,1.276-2.276,2.504c-0.017,3.519-0.006,7.037-0.006,10.556
			C206.667,53.685,206.664,53.685,206.66,53.685z"/>
		<path class="st2" d="M140.447,55.438c0-3.558-0.001-7.116,0-10.674c0-2.224,0.462-2.688,2.625-2.677
			c1.359,0.007,2.719-0.014,4.078-0.005c1.245,0.009,2.547,1.426,2.293,2.643c-0.225,1.078-0.177,2.145-0.179,3.217
			c-0.012,5.677-0.006,11.354-0.006,17.031c0,0.558-0.069,1.139,0.281,1.625c0.402,0.557,0.656,1.411,1.6,1.138
			c0.814-0.236,1.087-0.987,1.31-1.714c0.067-0.22,0.016-0.477,0.015-0.716c-0.006-6.876-0.01-13.753-0.018-20.629
			c-0.002-1.732,0.779-2.558,2.521-2.587c1.439-0.024,2.878,0,4.318-0.002c1.667-0.003,2.594,1.11,2.342,2.794
			c-0.07,0.471-0.115,0.951-0.115,1.426c0,8.076-0.008,16.152,0.034,24.227c0.006,1.091-0.369,1.534-1.445,1.518
			c-1.919-0.028-3.838-0.019-5.757,0.004c-0.764,0.009-1.416-0.255-1.987-0.713c-0.807-0.646-1.431-0.755-2.209,0.167
			c-0.971,1.151-4.142,1.741-5.699,0.898c-0.851-0.461-1.77-0.648-2.525-1.442c-1.228-1.292-1.412-2.796-1.432-4.374
			c-0.047-3.717-0.015-7.436-0.015-11.154C140.467,55.438,140.457,55.438,140.447,55.438z"/>
		<path class="st2" d="M284.865,57.628c0-4.198-0.001-8.397,0.001-12.595c0.001-2.069,0.693-2.605,2.768-2.382
			c1.101,0.118,2.235,0.188,3.338-0.09c0.943-0.238,1.64-0.018,2.038,0.942c0.44,1.062,1.166,1.08,2.011,0.474
			c0.745-0.534,1.562-0.952,2.331-1.447c1.523-0.979,3.161-0.898,4.719,0.029c0.411,0.245,0.797,0.519,1.254,0.686
			c0.254,0.093,0.659,0.25,0.683,0.422c0.18,1.298,1.284,2.16,1.364,3.583c0.433,7.749,0.012,15.502,0.219,23.249
			c0.034,1.254-0.27,1.546-1.543,1.552c-1.719,0.008-3.439,0.027-5.158-0.006c-1.651-0.032-2.019-0.456-2.017-2.077
			c0.008-6.878,0.006-13.755,0.006-20.633c0-0.28,0.014-0.564-0.028-0.838c-0.125-0.822-0.138-1.74-1.266-1.886
			c-1.166-0.151-1.778,0.622-2.194,1.497c-0.263,0.554-0.321,1.216-0.319,1.871c0.023,6.797,0.019,13.595,0.03,20.392
			c0.002,1.431-0.229,1.684-1.655,1.686c-1.679,0.002-3.359-0.001-5.038-0.002c-1.059-0.001-1.591-0.423-1.578-1.591
			c0.045-4.278,0.018-8.556,0.018-12.835C284.853,57.628,284.859,57.628,284.865,57.628z"/>
		<path class="st2" d="M251.882,57.593c-1.792,0.072-3.587-0.067-5.377,0.221c-0.818,0.132-1.215,0.453-1.237,1.288
			c-0.064,2.35,0.187,4.702-0.176,7.053c-0.147,0.951,0.847,1.756,1.989,1.826c0.82,0.05,2.003-0.907,1.995-1.869
			c-0.011-1.267,0.709-2.531-0.12-3.835c-0.391-0.616,0.629-1.697,1.682-1.738c1.876-0.073,3.757-0.061,5.634-0.005
			c0.968,0.029,1.231,0.812,1.237,1.616c0.027,3.602-1.127,6.735-3.931,9.091c-1.223,1.028-2.86,1.29-4.364,1.445
			c-2.246,0.232-4.511,0.071-6.772-0.354c-1.31-0.246-2.183-0.992-3.003-1.792c-1.651-1.61-2.578-3.634-2.589-5.98
			c-0.023-4.716,0.038-9.432-0.02-14.147c-0.034-2.768,1.173-5.029,3.334-6.382c3.247-2.033,6.837-3.076,10.609-1.067
			c0.206,0.11,0.442,0.169,0.671,0.227c3.366,0.854,4.762,3.272,5.405,6.47c0.425,2.114,0.336,4.271,0.804,6.369
			c0.179,0.804-0.585,1.514-1.693,1.553C254.601,57.629,253.241,57.593,251.882,57.593z M248.445,50.387
			c0.008-0.875,0.01-1.748-0.236-2.601c-0.285-0.988-1.201-1.335-2.038-0.74c-0.808,0.575-1.237,1.39-1.055,2.366
			c0.133,0.714,0.141,1.416,0.161,2.129c0.029,1.064,0.565,1.515,1.659,1.568c1.117,0.054,1.479-0.557,1.507-1.529
			C248.454,51.183,248.445,50.785,248.445,50.387z"/>
		<path class="st2" d="M276.537,72.036c-0.839,0-1.68,0.03-2.517-0.009c-0.682-0.032-1.313-0.161-1.734-0.85
			c-0.467-0.763-1.076-0.712-1.664-0.069c-1.661,1.813-3.551,2.098-5.917,1.362c-1.306-0.406-2.195-1.192-3.207-1.913
			c-0.28-0.199-0.541-0.456-0.573-0.869c-0.207-2.687-0.696-5.328-0.242-8.081c0.368-2.23,1.737-3.153,3.489-4.06
			c2.2-1.139,4.65-1.694,6.767-2.994c0.909-0.558,1.369-1.441,1.411-2.496c0.042-1.077,0.033-2.158-0.001-3.236
			c-0.021-0.65-0.286-1.229-0.698-1.746c-0.451-0.567-1.075-0.694-1.714-0.624c-0.613,0.067-0.929,0.551-1.115,1.116
			c-0.36,1.093-0.199,2.22-0.202,3.331c-0.008,2.256-0.432,2.756-2.666,2.859c-1.157,0.053-2.318,0.036-3.476,0.02
			c-1.254-0.017-2.092-1.066-2.034-2.577c0.113-2.954,1.135-5.487,3.519-7.361c0.094-0.074,0.173-0.202,0.276-0.224
			c1.956-0.415,3.591-1.922,5.757-1.65c0.748,0.094,1.519-0.019,2.276,0.026c3.004,0.179,5.492,1.446,7.356,3.784
			c0.738,0.926,0.66,2.176,0.655,3.331c-0.002,0.395-0.168,0.803-0.109,1.182c0.936,6.08,0.231,12.199,0.448,18.295
			c0.018,0.516-0.014,1.027,0.111,1.546c0.28,1.169-0.217,1.815-1.437,1.914c-0.476,0.039-0.959,0.005-1.438,0.004
			c-0.44,0-0.879,0-1.319,0C276.537,72.044,276.537,72.04,276.537,72.036z M272.19,62.917c0.007,0,0.014,0,0.022,0
			c0-0.996,0.045-1.995-0.012-2.989c-0.059-1.032-0.777-1.422-1.652-0.872c-1.016,0.639-1.718,1.545-1.743,2.815
			c-0.027,1.315-0.033,2.631-0.014,3.946c0.019,1.324,0.531,1.914,1.592,1.91c1.057-0.004,1.762-0.739,1.802-1.941
			C272.215,64.832,272.19,63.874,272.19,62.917z"/>
		<path class="st2" d="M323.649,57.446c-1.399,0.137-3.2-0.184-4.986,0.202c-0.766,0.165-1.067,0.556-1.085,1.315
			c-0.057,2.391,0.202,4.788-0.176,7.176c-0.104,0.659,1.444,2.338,2.091,2.419c0.591,0.074,2.187-1.183,2.364-1.956
			c0.296-1.296,0.236-2.616,0.042-3.921c-0.189-1.277,0.375-1.987,1.667-1.991c1.559-0.005,3.119-0.011,4.678,0.004
			c1.077,0.01,1.625,0.569,1.595,1.633c-0.07,2.459-0.481,4.877-1.983,6.869c-1.308,1.734-3.011,3.084-5.359,3.126
			c-2.61,0.046-5.216,0.389-7.814-0.424c-1.521-0.476-2.558-1.469-3.45-2.589c-1.523-1.911-1.907-4.239-1.902-6.638
			c0.007-3.439-0.02-6.878,0.015-10.316c0.012-1.193,0.034-2.412,0.28-3.57c0.456-2.148,1.66-4.133,3.514-5.044
			c2.685-1.32,5.633-2.723,8.769-1.355c1.561,0.681,3.327,0.789,4.669,2.183c2.014,2.093,2.797,4.555,3.026,7.308
			c0.116,1.389-0.065,2.786,0.201,4.181c0.179,0.937-0.376,1.4-1.328,1.394C326.997,57.439,325.518,57.446,323.649,57.446z
			 M317.795,50.075c0,0.752-0.038,1.194,0.008,1.627c0.094,0.894,0.615,1.462,1.5,1.569c0.997,0.121,1.676-0.502,1.791-1.368
			c0.182-1.37,0.149-2.793-0.291-4.126c-0.199-0.604-0.536-1.259-1.431-1.184c-0.845,0.071-1.125,0.651-1.326,1.321
			C317.804,48.721,317.738,49.55,317.795,50.075z"/>
		<path class="st2" d="M165.287,57.084c0-1.039,0.095-2.089-0.018-3.116c-0.298-2.713,0.374-5.242,1.455-7.657
			c0.567-1.267,1.542-2.357,2.94-2.795c1.957-0.613,3.824-1.638,5.999-1.353c2.708,0.355,5.427,0.917,7.321,2.959
			c1.533,1.653,2.377,3.826,2.4,6.189c0.015,1.599,0.002,3.198,0.02,4.797c0.011,0.964-0.468,1.472-1.4,1.334
			c-2.775-0.411-5.556,0.239-8.334-0.115c-1.29-0.164-2.176,0.605-2.227,1.946c-0.086,2.235-0.036,4.476-0.026,6.715
			c0.002,0.54,0.335,0.978,0.576,1.432c0.32,0.605,0.74,1.4,1.491,1.087c0.872-0.363,2.224-0.425,2.254-1.78
			c0.031-1.415,0.428-2.828-0.052-4.265c-0.32-0.958,0.187-1.539,1.184-1.579c1.832-0.074,3.667,0.143,5.502-0.145
			c0.716-0.113,0.981,0.588,0.984,1.121c0.009,1.706,0.209,3.421-0.387,5.102c-1.071,3.024-3.896,5.063-7.093,5.2
			c-2.15,0.092-4.28,0.248-6.408-0.239c-2.619-0.599-4.361-2.13-5.235-4.675c-0.559-1.626-1.027-3.252-0.96-5.008
			C165.338,60.524,165.287,58.803,165.287,57.084z M173.394,50.221c0,0.636-0.038,1.118,0.008,1.592
			c0.104,1.093,0.901,1.702,2.091,1.642c1.098-0.055,1.793-0.724,1.809-1.786c0.011-0.717,0.047-1.418,0.193-2.13
			c0.222-1.08-0.643-2.588-1.693-2.995c-0.567-0.22-1.108-0.199-1.56,0.438C173.502,48.026,173.294,49.151,173.394,50.221z"/>
		<path class="st2" d="M223.768,54.131c0-5.237-0.001-10.475,0.002-15.712c0-0.517,0.037-1.026,0.127-1.544
			c0.191-1.103,0.768-1.565,1.887-1.53c1.598,0.049,3.2,0.069,4.796-0.002c2.145-0.096,2.68,1.213,2.568,3.108
			c-0.037,0.627-0.137,1.263-0.137,1.899c-0.004,9.395-0.004,18.79,0.002,28.185c0,0.516,0.018,1.04,0.107,1.546
			c0.212,1.198-0.345,2.066-1.585,2.109c-2.156,0.075-4.318,0.072-6.475,0.016c-1.068-0.028-1.314-0.797-1.31-1.763
			c0.021-5.437,0.01-10.874,0.01-16.311C223.763,54.131,223.765,54.131,223.768,54.131z"/>
		<path class="st2" d="M333.365,57.246c0-4.275-0.004-8.55,0.002-12.826c0.002-1.771,0.349-2.087,2.081-2.139
			c1.472-0.044,2.94,0.098,4.42-0.128c0.842-0.129,1.673,0.239,1.872,1.259c0.128,0.659,0.481,1.104,1.113,1.258
			c0.754,0.184,1.169-0.337,1.554-0.873c0.162-0.225,0.31-0.499,0.535-0.63c0.658-0.382,1.179-1.27,2.092-0.855
			c0.921,0.419,0.489,1.347,0.513,2.042c0.066,1.916,0.017,3.835,0.032,5.753c0.009,1.199-0.45,1.891-1.721,2.167
			c-2.921,0.636-3.318,1.335-3.599,4.308c-0.391,4.149-0.081,8.298-0.199,12.444c-0.01,0.354,0.039,0.716,0.112,1.064
			c0.295,1.407,0.005,1.888-1.422,1.935c-1.996,0.065-3.995,0.028-5.993,0.01c-0.953-0.008-1.427-0.438-1.419-1.484
			c0.037-4.435,0.016-8.87,0.016-13.305C333.359,57.246,333.362,57.246,333.365,57.246z"/>
		<path class="st2" d="M69.776,77.284C69.762,87.23,61.839,95.55,51.763,95.41c-9.894-0.138-17.448-7.421-17.748-17.66
			c-0.29-9.884,7.764-17.944,17.734-18.046C61.728,59.602,69.481,67.409,69.776,77.284z M66.853,76.065
			c-0.167-2.703-1.384-6.141-4.096-8.913c-2.26-2.31-5.107-3.624-8.229-4.358c-1.27-0.298-2.553-0.701-3.863-0.38
			c-2.891,0.707-5.771,1.47-8.144,3.42c-1.906,1.566-3.629,3.393-4.458,5.679c-0.961,2.648-1.681,5.307-1.022,8.379
			c0.876,4.082,2.986,7.095,6.015,9.676c1.66,1.414,3.726,1.981,5.772,2.478c1.037,0.252,2.063,0.834,3.144,0.668
			c4.743-0.727,8.965-2.39,11.958-6.462C65.936,83.522,66.867,80.536,66.853,76.065z"/>
		<path class="st2" d="M136.425,54.047c0,5.039-0.002,10.077,0.002,15.116c0,0.398-0.018,0.809,0.067,1.193
			c0.226,1.033-0.386,1.465-1.213,1.493c-2.117,0.072-4.238,0.057-6.357,0.015c-0.863-0.017-1.219-0.652-1.026-1.416
			c0.241-0.956,0.172-1.907,0.173-2.86c0.01-9.157-0.008-18.315,0.024-27.472c0.003-1.024-0.392-2.016-0.039-3.082
			c0.26-0.786,0.626-1.127,1.433-1.111c1.479,0.029,2.959,0.026,4.438,0.021c1.831-0.006,2.503,0.649,2.505,2.507
			c0.004,3.599-0.004,7.198-0.006,10.797C136.424,50.848,136.425,52.448,136.425,54.047z"/>
		<path class="st2" d="M231.219,84.964c2.492-0.247,4.8,2.19,4.007,4.908c-0.146,0.498-0.416,0.818-0.86,1.077
			c-1.677,0.979-1.911,2.092-0.802,3.634c0.3,0.418,0.365,1.036,0.855,1.274c0.917,0.445,1.763,0.364,2.434-0.526
			c0.242-0.322,0.58-0.602,1.026-0.312c0.405,0.263,0.419,0.676,0.263,1.067c-0.16,0.403-0.332,0.833-0.613,1.15
			c-0.783,0.882-0.858,1.646,0.131,2.437c0.363,0.291,0.589,0.748,0.903,1.108c0.363,0.416,0.731,0.87,0.152,1.318
			c-0.481,0.371-1.034,0.34-1.515-0.135c-1.372-1.357-2.284-1.352-3.59,0.024c-0.735,0.774-1.719,0.557-2.601,0.644
			c-3.838,0.38-6.501-3.187-5.183-6.63c0.45-1.175,1.453-1.875,2.415-2.583c1.062-0.781,1.174-1.572,0.309-2.595
			c-1.609-1.905-1.573-2.629,0.207-4.269c0.145-0.134,0.328-0.281,0.378-0.454C229.465,84.934,230.348,84.862,231.219,84.964z
			 M230.834,101.184c0.294,0.016,0.759-0.043,1.224-0.186c1.9-0.583,2.654-2.23,1.515-3.831c-0.612-0.859-1.402-1.651-2.137-2.435
			c-0.947-1.011-1.945-0.806-2.847,0.274c-0.407,0.486-0.816,0.97-1.217,1.462c-0.289,0.355-0.383,0.77-0.365,1.225
			C227.07,99.276,229.046,101.176,230.834,101.184z M233.643,88.85c0.013-1.46-0.86-2.38-2.248-2.368
			c-0.999,0.008-2.133,1.162-2.168,2.205c-0.026,0.765,1.61,2.618,2.301,2.607C232.361,91.28,233.634,89.809,233.643,88.85z"/>
		<path class="st2" d="M325.687,97.469c0,1.238-0.037,2.477,0.014,3.713c0.03,0.718-0.369,0.921-0.932,0.966
			c-0.889,0.071-1.557-0.402-2.004-1.091c-0.365-0.564,0.085-1.073,0.43-1.49c0.577-0.697,0.601-1.489,0.4-2.269
			c-0.218-0.847-0.856-1.319-1.728-0.996c-1.364,0.505-2.661,1.169-4.087,1.539c-1.038,0.269-0.65,1.221-0.634,1.929
			c0.014,0.636,0.205,1.189,1.014,1.215c0.958,0.031,1.916,0.077,2.872,0.145c0.35,0.025,0.786,0.065,0.794,0.544
			c0.008,0.441-0.37,0.568-0.739,0.645c-1.223,0.255-2.461,0.334-3.693,0.139c-1.027-0.163-2.316-1.981-2.336-3.182
			c-0.019-1.134,1.2-2.918,2.18-3.165c1.657-0.419,3.307-0.875,4.98-1.221c0.967-0.2,1.197-0.843,1.21-1.635
			c0.014-0.853-0.254-1.615-1.237-1.778c-1.783-0.295-3.513-0.362-4.778,1.309c-0.282,0.373-0.649,0.771-1.2,0.613
			c-0.338-0.097-0.453-0.463-0.468-0.779c-0.027-0.549,0.141-1.014,0.746-1.206c0.224-0.071,0.496-0.166,0.624-0.34
			c1.556-2.117,3.774-1.293,5.725-1.149c1.68,0.124,2.907,2.209,2.917,4.306c0.005,1.078,0.001,2.156,0.001,3.234
			C325.735,97.469,325.711,97.469,325.687,97.469z"/>
		<path class="st2" d="M182.144,96.735c-1.069,0-1.869-0.03-2.666,0.01c-0.644,0.032-1.153,0.356-1.379,0.983
			c-0.221,0.613,0.042,1.08,0.539,1.453c0.158,0.118,0.301,0.267,0.418,0.427c1.5,2.059,3.733,2.211,5.587,0.369
			c0.26-0.259,0.543-0.457,0.889-0.588c0.487-0.183,0.958-0.272,1.261,0.262c0.297,0.523-0.044,0.824-0.397,1.214
			c-1.4,1.541-3.109,1.911-5.128,1.831c-1.913-0.076-2.957-1.095-4.076-2.467c-1.444-1.77-1.257-3.724-1.156-5.692
			c0.066-1.291,1.145-2.198,1.92-3.035c1.075-1.159,2.496-1.974,4.346-1.771c2.218,0.243,4.775,2.49,5.004,4.711
			c0.129,1.252-0.463,1.904-1.735,2.062C184.341,96.656,183.115,96.785,182.144,96.735z M177.929,93.765
			c0.349,0.895,1.109,1.3,1.938,1.364c1.46,0.113,2.941,0.15,4.397,0.031c0.723-0.059,1.443-0.73,1.113-1.508
			c-0.403-0.95-1.174-1.88-2.086-2.284c-0.942-0.417-2.119-0.107-3.181,0.018c-0.778,0.092-0.792,0.913-1.097,1.433
			C178.756,93.254,178.255,93.366,177.929,93.765z"/>
		<path class="st2" d="M210.158,91.281c-0.987-0.219-1.901,0.018-2.461,1.149c-0.208,0.42-0.719,0.473-1.125,0.632
			c-0.358,0.14-0.723,0.178-0.971-0.18c-0.253-0.365-0.043-0.66,0.194-0.963c1.525-1.95,4.945-2.854,7.254-1.883
			c0.244,0.103,0.508,0.291,0.638,0.512c0.442,0.753,0.866,1.5,1.513,2.117c0.233,0.222,0.444,0.706,0.363,0.981
			c-0.463,1.57,0.335,3.161-0.15,4.725c-0.286,0.922-0.44,1.87,0.027,2.804c0.154,0.309,0.176,0.691-0.16,0.852
			c-0.944,0.454-1.439-0.664-2.28-0.724c-0.326-0.023-0.615-0.359-0.466-0.91c0.159-0.59,0.405-1.101,0.691-1.627
			c0.323-0.596,0.636-1.312,0.076-1.898c-0.601-0.629-1.474-0.96-2.293-0.68c-1.369,0.469-2.536,1.401-4.007,1.724
			c-0.812,0.178-0.477,1.058-0.476,1.668c0.001,0.674,0.282,1.147,0.984,1.287c0.892,0.178,1.778,0.388,2.699,0.388
			c0.408,0,0.865,0.09,0.839,0.629c-0.023,0.479-0.472,0.486-0.822,0.5c-1.597,0.061-3.113,0.427-4.555-1.014
			c-1.742-1.741-1.018-4,1.364-5.084c1.338-0.608,2.756-0.989,4.213-1.203c0.079-0.012,0.164-0.015,0.234-0.048
			c0.747-0.352,1.904-0.356,1.826-1.524c-0.098-1.47-1.016-2.219-2.404-2.229C210.704,91.28,210.504,91.281,210.158,91.281z"/>
		<path class="st2" d="M266.036,102.561c-3.015-0.003-4.603-1.318-5.117-4.282c-0.197-1.134-0.218-2.263-0.176-3.434
			c0.081-2.235,1.519-3.502,3.02-4.598c1.22-0.891,2.92-0.779,4.28-0.239c3.561,1.413,5.392,6.504,3.301,9.492
			C269.728,101.809,268.733,102.564,266.036,102.561z M262.439,96.083c-0.09,1.611,0.154,3.068,1.43,4.261
			c0.938,0.876,4,1.224,4.676,0.277c1.112-1.557,2.06-3.215,1.712-5.285c-0.26-1.545-1.187-2.86-2.306-3.608
			c-2.202-1.472-5.62,0.593-5.444,3.04C262.538,95.202,262.464,95.644,262.439,96.083z"/>
		<path class="st2" d="M160.03,89.784c2.248-0.435,3.441,1.015,4.526,2.567c1.063,1.521,1.957,3.148,1.312,5.095
			c-0.623,1.878-1.366,3.746-3.163,4.827c-1.064,0.64-2.343,0.406-3.513,0.33c-2.187-0.143-3.483-1.511-4.242-3.469
			c-0.029-0.074-0.036-0.157-0.065-0.23c-0.387-0.984-1.195-1.878-0.842-3.035c0.625-2.047,1.23-4.073,3.165-5.427
			C158.138,89.79,159.077,89.889,160.03,89.784z M160.307,91.249c-1.661,0.003-3.539,1.299-3.871,2.669
			c-0.471,1.944-0.627,3.865,0.617,5.684c1.14,1.668,2.94,2.249,4.764,1.33c0.275-0.139,0.655-0.167,0.78-0.504
			c0.913-2.466,2.091-4.818,0.3-7.528C162.104,91.701,161.283,91.317,160.307,91.249z"/>
		<path class="st2" d="M142.503,97.13c-0.193-1.242,0.444-2.892-0.347-4.48c-0.782-1.57-3.245-1.845-4.43-0.568
			c-1.282,1.381-1.592,2.839-1.272,4.669c0.252,1.438,0.106,2.949,0.098,4.427c-0.004,0.792-0.501,1.128-1.253,1.127
			c-0.741-0.001-0.97-0.466-0.935-1.108c0.17-3.112-0.247-6.227,0.076-9.338c0.136-1.305,0.366-1.482,1.546-1.026
			c0.607,0.235,1.147,0.22,1.694-0.168c2.658-1.886,5.647-0.838,6.685,2.278c0.357,1.072,0.177,2.134,0.218,3.203
			c0.062,1.634-0.121,3.271,0.13,4.905c0.101,0.658-0.177,1.197-0.95,1.253c-0.769,0.056-1.241-0.295-1.255-1.093
			C142.487,99.972,142.503,98.733,142.503,97.13z"/>
		<path class="st2" d="M296.17,95.095c-0.047,1.076-0.13,2.152-0.135,3.228c-0.011,2.521,2.107,3.932,4.214,2.593
			c1.039-0.66,1.819-1.965,1.865-3.391c0.046-1.436-0.01-2.875-0.011-4.313c0-0.478-0.004-0.961,0.056-1.434
			c0.082-0.649,0.227-1.37,1.071-1.323c0.824,0.046,0.808,0.809,0.806,1.382c-0.011,3.154-0.065,6.307-0.105,9.46
			c-0.005,0.372-0.058,0.744-0.439,0.914c-0.404,0.18-0.675-0.098-0.931-0.361c-0.55-0.565-1.052-0.612-1.784-0.161
			c-3.155,1.943-6.299,0.941-6.794-2.914c-0.293-2.278-0.056-4.624-0.043-6.939c0.001-0.233,0.088-0.471,0.16-0.698
			c0.182-0.572,0.58-0.852,1.18-0.775c0.58,0.075,0.799,0.482,0.803,1.016c0.01,1.238,0.003,2.476,0.003,3.714
			C296.114,95.093,296.142,95.094,296.17,95.095z"/>
		<path class="st2" d="M258.431,99.082c0.135,1.616-1.05,2.466-2.125,3.164c-1.574,1.022-5.348,0.166-6.455-1.319
			c-1.383-1.855-2.205-3.974-1.517-6.237c0.571-1.878,1.643-3.601,3.563-4.503c1.371-0.644,2.772-0.599,4.163,0.006
			c0.757,0.329,1.307,0.909,1.821,1.51c0.383,0.449,0.579,1.033-0.002,1.478c-0.611,0.468-1.238,0.217-1.502-0.388
			c-0.793-1.817-2.246-1.61-3.743-1.349c-0.228,0.04-0.572,0.104-0.64,0.255c-0.574,1.288-1.978,2.134-2.044,3.669
			c-0.062,1.423,0.122,2.706,0.962,4.05c1.012,1.62,2.161,2.039,3.854,1.719c0.672-0.127,1.141-0.434,1.49-1.056
			C256.842,99.031,257.245,98.883,258.431,99.082z"/>
		<path class="st2" d="M278.817,89.894c1.564-0.429,2.623,0.552,3.788,1.207c0.165,0.093,0.296,0.269,0.407,0.431
			c0.356,0.516,0.466,1.058-0.108,1.478c-0.617,0.452-0.948-0.097-1.263-0.485c-0.312-0.385-0.33-1.028-0.976-1.112
			c-1.064-0.139-2.137-0.472-3.2-0.128c-1.045,0.338-1.028,1.403-1.135,2.207c-0.091,0.684,0.665,1.142,1.27,1.207
			c1.624,0.174,2.959,1.091,4.464,1.557c1.753,0.544,2.422,3.005,1.244,4.409c-1.428,1.702-4.331,2.671-6.345,1.824
			c-0.97-0.408-1.708-1.387-2.521-2.14c-0.213-0.197-0.189-0.532,0-0.776c0.225-0.292,0.576-0.346,0.867-0.191
			c0.38,0.202,0.804,0.436,1.039,0.774c1.163,1.673,2.87,1.085,4.377,1.008c1.14-0.059,1.212-1.19,1.36-2.09
			c0.147-0.897-0.542-1.193-1.163-1.432c-1.18-0.456-2.368-0.943-3.598-1.205c-1.523-0.325-2.167-1.512-2.948-2.595
			c-0.216-0.3-0.274-0.79-0.04-1.024C275.64,91.517,276.253,89.134,278.817,89.894z"/>
		<path class="st2" d="M122.683,96.185c0-1.077,0.196-2.2-0.046-3.219c-0.362-1.524-1.1-2.975,0.098-4.437
			c0.019-0.023,0.001-0.078-0.002-0.117c-0.081-0.822-0.156-1.82,0.941-1.819c1.089,0.001,0.873,1.028,0.813,1.757
			c-0.064,0.783,0.246,1.285,0.931,1.634c0.683,0.348,0.722,0.807,0.101,1.271c-0.818,0.612-1.036,1.446-1.019,2.421
			c0.028,1.555-0.015,3.111-0.004,4.667c0.008,1.089,0.309,2.041,1.324,2.645c0.335,0.199,0.738,0.439,0.516,0.937
			c-0.201,0.45-0.619,0.576-1.089,0.592c-1.361,0.046-2.549-1.178-2.593-2.74c-0.034-1.195-0.007-2.393-0.007-3.589
			C122.659,96.185,122.671,96.185,122.683,96.185z"/>
		<path class="st2" d="M190.517,96.594c0-1.639-0.058-3.281,0.018-4.916c0.065-1.406,0.458-1.596,1.686-0.969
			c0.548,0.279,0.942,0.067,1.235-0.365c0.555-0.817,1.341-0.767,2.148-0.612c0.576,0.11,0.971,0.458,0.863,1.088
			c-0.09,0.521-0.314,0.944-0.979,1.03c-2.127,0.276-3.291,1.554-3.353,3.704c-0.05,1.718-0.014,3.438-0.018,5.158
			c-0.001,0.28,0.02,0.563-0.014,0.838c-0.065,0.517-0.314,0.97-0.87,0.985c-0.63,0.016-0.765-0.546-0.774-1.021
			c-0.034-1.639-0.013-3.278-0.013-4.918C190.469,96.594,190.493,96.594,190.517,96.594z"/>
		<path class="st2" d="M148.756,96.846c-0.056-1.277-0.13-2.553-0.162-3.831c-0.017-0.674-0.189-1.263-0.692-1.726
			c-0.488-0.449-0.52-0.901,0.035-1.288c0.675-0.47,0.856-1.091,0.768-1.876c-0.083-0.737,0.078-1.496,0.986-1.433
			c0.839,0.058,0.893,0.796,0.721,1.473c-0.193,0.761,0.038,1.32,0.665,1.766c0.594,0.423,0.614,0.898,0.042,1.363
			c-0.618,0.502-0.817,1.157-0.744,1.922c0.184,1.913,0.026,3.828,0.04,5.742c0.007,0.935,0.341,1.705,1.38,1.988
			c0.422,0.115,0.899,0.361,0.815,0.89c-0.094,0.588-0.66,0.625-1.137,0.658c-1.453,0.1-2.622-0.881-2.747-2.409
			c-0.088-1.072-0.017-2.157-0.017-3.236C148.725,96.848,148.74,96.847,148.756,96.846z"/>
		<path class="st2" d="M199.089,96.447c0.107-1.394-0.155-3.148,0.153-4.901c0.15-0.851,0.611-1.017,1.327-1.006
			c0.797,0.012,1.1,0.491,0.98,1.175c-0.296,1.692,0.052,3.39-0.155,5.094c-0.161,1.326,0.039,2.701,0.122,4.052
			c0.048,0.784,0.045,1.533-0.991,1.517c-0.919-0.014-1.472-0.477-1.445-1.506C199.116,99.516,199.089,98.158,199.089,96.447z"/>
		<path class="st2" d="M287.645,98.579c0.281-1.495,0.283-3.192,0.061-4.915c-0.111-0.858-0.236-1.682-0.753-2.353
			c-0.5-0.649-0.47-1.124,0.166-1.609c0.572-0.436,0.908-0.905,0.676-1.736c-0.163-0.582,0.265-1.125,0.913-1.169
			c0.747-0.05,0.963,0.524,0.864,1.138c-0.146,0.906-0.038,1.655,0.803,2.192c0.5,0.319,0.472,0.739,0,1.051
			c-0.782,0.515-0.878,1.264-0.863,2.1c0.033,1.719,0.029,3.438,0.048,5.157c0.012,1.067,0.093,2.096,1.267,2.619
			c0.357,0.159,0.526,0.509,0.425,0.903c-0.112,0.438-0.508,0.445-0.868,0.484c-1.51,0.162-2.574-0.974-2.736-2.93
			C287.628,99.272,287.645,99.031,287.645,98.579z"/>
		<path class="st2" d="M307.474,96.703c0.071-1.593,0.096-3.189,0.226-4.777c0.114-1.403,0.442-1.58,1.656-0.954
			c0.64,0.33,0.976,0.023,1.29-0.429c0.485-0.7,1.122-0.995,1.959-0.783c0.506,0.128,0.909,0.424,0.875,0.981
			c-0.035,0.571-0.386,0.913-0.996,1c-2.039,0.292-3.248,1.595-3.295,3.618c-0.044,1.874-0.011,3.749-0.016,5.624
			c-0.002,0.605,0.029,1.367-0.74,1.413c-0.852,0.051-0.921-0.716-0.924-1.382c-0.006-1.436-0.002-2.872-0.002-4.308
			C307.497,96.705,307.486,96.704,307.474,96.703z"/>
		<path class="st2" d="M168.726,101.014c0-2.904,0.012-5.808-0.007-8.712c-0.006-0.89,0.195-1.427,1.265-1.389
			c0.786,0.028,1.575-0.187,2.24-0.701c0.183-0.141,0.427-0.21,0.649-0.294c0.675-0.255,1.412-0.212,1.611,0.508
			c0.221,0.803-0.572,1.382-1.178,1.312c-2.089-0.24-2.08,1.491-2.575,2.631c-0.581,1.337-0.313,2.825-0.321,4.253
			c-0.005,0.837,0.024,1.674,0.038,2.51c0.011,0.669-0.346,0.939-0.98,0.884C168.861,101.964,168.528,101.645,168.726,101.014z"/>
		<path class="st2" d="M131.085,96.458c0,1.516,0.007,3.033-0.004,4.549c-0.004,0.615-0.062,1.347-0.817,1.384
			c-0.809,0.04-1.003-0.723-1.029-1.36c-0.11-2.743-0.193-5.487-0.223-8.232c-0.006-0.578,0.212-1.172,0.403-1.733
			c0.126-0.371,0.373-0.767,0.855-0.695c0.496,0.075,0.75,0.46,0.759,0.942c0.027,1.475,0.024,2.951,0.033,4.426
			c0.001,0.239,0,0.479,0,0.718C131.069,96.458,131.077,96.458,131.085,96.458z"/>
		<path class="st2" d="M131.037,86.448c-0.015,0.522-0.029,1.104-0.735,1.128c-0.848,0.028-1.02-0.637-1.058-1.292
			c-0.035-0.596,0.289-0.991,0.917-0.998C130.938,85.277,130.994,85.863,131.037,86.448z"/>
		<path class="st2" d="M202.26,85.798c0.032,0.58-1.057,1.966-1.485,2.002c-0.485,0.041-0.752-0.22-0.815-0.676
			c-0.095-0.682,0.822-1.711,1.517-1.73C201.867,85.382,202.188,85.466,202.26,85.798z"/>
		<path class="st2" d="M110.756,60.984c0-1.197-0.011-2.395,0.003-3.592c0.014-1.206,0.612-1.963,1.576-2.038
			c1.115-0.088,2.748,1.025,2.767,1.988c0.049,2.474,0.04,4.949,0.021,7.423c-0.006,0.75-1.915,2.373-2.691,2.358
			c-0.787-0.015-1.609-1.024-1.658-2.188c-0.056-1.315-0.013-2.633-0.013-3.95C110.76,60.984,110.758,60.984,110.756,60.984z"/>
		<path class="st2" d="M110.76,45.639c0-0.8,0.021-1.6-0.006-2.399c-0.023-0.671,0.014-1.349,0.687-1.658
			c0.742-0.341,1.617-0.412,2.3,0.035c0.8,0.523,1.439,1.245,1.407,2.358c-0.044,1.518,0.007,3.039-0.016,4.558
			c-0.015,1.021-1.609,2.286-2.799,2.265c-0.947-0.017-1.533-0.797-1.572-2.16c-0.028-0.999-0.006-1.999-0.006-2.999
			C110.756,45.639,110.758,45.639,110.76,45.639z"/>
		<path class="st2" d="M248.445,50.387c0,0.398,0.01,0.796-0.002,1.193c-0.028,0.972-0.39,1.583-1.507,1.529
			c-1.094-0.053-1.63-0.503-1.659-1.568c-0.019-0.713-0.027-1.415-0.161-2.129c-0.182-0.976,0.247-1.792,1.055-2.366
			c0.837-0.596,1.753-0.248,2.038,0.74C248.455,48.639,248.453,49.512,248.445,50.387z"/>
		<path class="st2" d="M272.19,62.917c0,0.957,0.025,1.914-0.006,2.87c-0.039,1.202-0.744,1.937-1.802,1.941
			c-1.061,0.004-1.573-0.585-1.592-1.91c-0.019-1.315-0.013-2.631,0.014-3.946c0.026-1.27,0.728-2.177,1.743-2.815
			c0.875-0.55,1.592-0.16,1.652,0.872c0.057,0.993,0.012,1.992,0.012,2.989C272.204,62.917,272.197,62.917,272.19,62.917z"/>
		<path class="st2" d="M317.795,50.075c-0.058-0.525,0.009-1.355,0.251-2.162c0.201-0.669,0.481-1.25,1.326-1.321
			c0.896-0.075,1.232,0.58,1.431,1.184c0.44,1.333,0.473,2.756,0.291,4.126c-0.115,0.867-0.794,1.49-1.791,1.368
			c-0.885-0.108-1.406-0.675-1.5-1.569C317.758,51.269,317.795,50.828,317.795,50.075z"/>
		<path class="st2" d="M173.394,50.221c-0.1-1.07,0.108-2.195,0.848-3.238c0.452-0.637,0.993-0.658,1.56-0.438
			c1.05,0.407,1.915,1.916,1.693,2.995c-0.146,0.713-0.182,1.414-0.193,2.13c-0.016,1.062-0.711,1.731-1.809,1.786
			c-1.191,0.06-1.987-0.549-2.091-1.642C173.356,51.339,173.394,50.857,173.394,50.221z"/>
		<path class="st2" d="M66.853,76.065c0.013,4.471-0.917,7.457-2.922,10.186c-2.994,4.073-7.216,5.735-11.958,6.462
			c-1.081,0.166-2.107-0.416-3.144-0.668c-2.046-0.497-4.113-1.064-5.772-2.478c-3.029-2.581-5.139-5.594-6.015-9.676
			c-0.659-3.072,0.061-5.731,1.022-8.379c0.829-2.286,2.552-4.113,4.458-5.679c2.373-1.95,5.253-2.712,8.144-3.42
			c1.31-0.321,2.593,0.082,3.863,0.38c3.122,0.734,5.968,2.048,8.229,4.358C65.469,69.924,66.686,73.362,66.853,76.065z
			 M51.827,73.686c2.543,0.152,4.261-2.401,4.503-4.267c0.237-1.825-2.184-4.279-3.988-4.303c-2.459-0.032-4.554,1.756-4.599,3.926
			C47.69,71.559,49.537,73.66,51.827,73.686z M47.763,85.588c0.023,2.198,1.97,4.242,4.022,4.223c2.37-0.023,4.611-2.2,4.562-4.432
			c-0.037-1.669-2.635-4.24-4.288-4.126C50.231,81.378,47.264,83.237,47.763,85.588z M43.547,72.393
			c-1.916-0.241-4.145,2.358-4.182,4.413c-0.042,2.308,2.1,4.388,4.475,4.361c1.669-0.019,3.784-2.317,3.798-4.127
			C47.656,74.646,45.67,72.39,43.547,72.393z M55.988,76.798c-0.357,1.937,2.49,4.226,4.088,4.297
			c1.823,0.081,4.114-2.127,4.24-4.137c0.106-1.697-2.188-4.466-3.757-4.568C59.084,72.293,55.746,74.522,55.988,76.798z"/>
		<path class="st2" d="M230.834,101.184c-1.787-0.008-3.763-1.908-3.827-3.491c-0.018-0.455,0.076-0.87,0.365-1.225
			c0.4-0.492,0.81-0.976,1.217-1.462c0.903-1.08,1.9-1.285,2.847-0.274c0.735,0.784,1.525,1.576,2.137,2.435
			c1.139,1.6,0.385,3.247-1.515,3.831C231.593,101.141,231.127,101.2,230.834,101.184z"/>
		<path class="st2" d="M233.643,88.85c-0.009,0.959-1.282,2.43-2.116,2.444c-0.691,0.012-2.326-1.842-2.301-2.607
			c0.035-1.043,1.169-2.197,2.168-2.205C232.783,86.47,233.656,87.39,233.643,88.85z"/>
		<path class="st2" d="M177.929,93.765c0.326-0.398,0.827-0.511,1.084-0.946c0.306-0.519,0.319-1.341,1.097-1.433
			c1.062-0.125,2.238-0.434,3.181-0.018c0.912,0.403,1.684,1.333,2.086,2.284c0.33,0.778-0.39,1.449-1.113,1.508
			c-1.457,0.119-2.937,0.082-4.397-0.031C179.038,95.065,178.278,94.659,177.929,93.765z"/>
		<path class="st2" d="M262.439,96.083c0.025-0.439,0.099-0.881,0.068-1.316c-0.176-2.447,3.242-4.512,5.444-3.04
			c1.12,0.749,2.047,2.063,2.306,3.608c0.348,2.07-0.599,3.728-1.712,5.285c-0.676,0.947-3.738,0.6-4.676-0.277
			C262.593,99.151,262.348,97.694,262.439,96.083z"/>
		<path class="st2" d="M160.307,91.249c0.976,0.068,1.797,0.453,2.59,1.652c1.791,2.709,0.613,5.062-0.3,7.528
			c-0.125,0.337-0.505,0.366-0.78,0.504c-1.824,0.918-3.624,0.338-4.764-1.33c-1.243-1.819-1.087-3.74-0.617-5.684
			C156.768,92.547,158.645,91.251,160.307,91.249z"/>
		<path class="st2" d="M51.827,73.686c-2.29-0.026-4.137-2.126-4.085-4.644c0.045-2.17,2.14-3.958,4.599-3.926
			c1.804,0.024,4.225,2.478,3.988,4.303C56.087,71.285,54.37,73.838,51.827,73.686z"/>
		<path class="st2" d="M47.763,85.588c-0.499-2.351,2.468-4.21,4.296-4.335c1.653-0.113,4.251,2.457,4.288,4.126
			c0.049,2.232-2.192,4.409-4.562,4.432C49.733,89.83,47.786,87.786,47.763,85.588z"/>
		<path class="st2" d="M43.547,72.393c2.123-0.004,4.108,2.252,4.09,4.647c-0.014,1.81-2.129,4.108-3.798,4.127
			c-2.375,0.026-4.517-2.053-4.475-4.361C39.403,74.752,41.632,72.152,43.547,72.393z"/>
		<path class="st2" d="M55.988,76.798c-0.242-2.276,3.096-4.505,4.571-4.408c1.569,0.103,3.864,2.871,3.757,4.568
			c-0.126,2.01-2.417,4.218-4.24,4.137C58.478,81.025,55.631,78.735,55.988,76.798z"/>
	</g>
</g>
</svg>
