<?xml version="1.0" encoding="utf-8"?>
<!-- Generator: Adobe Illustrator 22.1.0, SVG Export Plug-In . SVG Version: 6.00 Build 0)  -->
<svg version="1.1" id="Capa_1" xmlns="http://www.w3.org/2000/svg" xmlns:xlink="http://www.w3.org/1999/xlink" x="0px" y="0px"
	 viewBox="0 0 229.4 230.4" style="enable-background:new 0 0 229.4 230.4;" xml:space="preserve">
<style type="text/css">
	.st0{fill:none;stroke:#000000;stroke-width:2;stroke-miterlimit:10;stroke-dasharray:570;stroke-dashoffset:-570;}
</style>
<g id="contorno_1_">
	<path class="st0" d="M165.2,77.6c24.6,10.1,36.7,26.5,29.1,53.2c-4.3,15.2-17.7,25.1-37.6,27.5c2.1-23.6-2.3-44.3-28.2-53.8
		c7-4.9,12.4-9.7,16.4-16c12.4-19.4,1.1-53.1-28.2-57.8c-13.6-2.2-27.2-1.8-40.8-1.9c-7.7,0-15.3,0-23.4,0c0-7.7,0-15.2,0-22.8
		c0.9-0.9,2.1-0.5,3.3-0.5c30.2,0,60.3-0.2,90.5,0.1c9.4,0.1,18.9,0.1,27.3,6c20.6,14.3,21,44.9,0.6,59.9
		C171.5,73.4,168.8,75.2,165.2,77.6z"/>
	<path class="st0" d="M117.2,67.4c0,8.5,0,16.6,0,24.8c-8.2,2.7-16.3,5.7-24,9.6c-15.5,7.9-26.3,20.2-28.5,37.4
		c-2.2,17.6,1.2,34.5,15.3,47.4c7.8,7.1,17.2,11.3,26.9,14.7c3.6,1.3,6.8,3.7,10.9,3.2c0,8.5,0,16.6,0,24.7
		c-31.5,2.9-75.1-23-80.7-72C31.5,107.7,70.9,69,117.2,67.4z"/>
	<path class="st0" d="M110.4,186.6c-20.8,0-38.5-17.4-38.2-38.2c0.3-23.4,17.5-38.3,38.5-38.5c21.9-0.3,38.6,17.6,38.4,38.6
		C148.8,169,132.6,186.4,110.4,186.6z M110.4,116c-17.3,0-32.2,15.1-32,32.3c0.2,17.4,15.2,32.3,32.5,31.9
		c18.5-0.5,31.8-14.3,32-32.4C143.1,130.5,127.9,116,110.4,116z"/>
	<path class="st0" d="M118.3,164c0.1,5.9-2.9,9-8.6,9c-5.1,0-8.7-3.7-8.7-8.9c0-5.1,3.6-8.7,8.8-8.7
		C115.2,155.3,118.2,158.4,118.3,164z"/>
	<path class="st0" d="M93.2,155.5c-5.9-0.1-9.2-3.1-9.1-8.4c0.1-5.5,4.3-9.1,10.5-8.5c2.8,0.3,7.7,5.1,7.6,8.8
		C101.9,152.4,98.6,155.6,93.2,155.5z"/>
	<path class="st0" d="M128,155.5c-5.5-0.2-8.8-3.4-8.7-8.4c0.1-5.2,5-9.1,10.9-8.6c3.9,0.3,7.4,4.8,7.1,9.4
		C137,152.6,133.2,155.8,128,155.5z"/>
	<path class="st0" d="M109.1,123.4c7.5,0.3,9.9,2.3,9.4,8.7c-0.5,5.2-3.9,8.2-8.7,7.6c-5.8-0.7-8.9-3.4-8.7-8.9
		C101.2,125.6,103.9,123.2,109.1,123.4z"/>
</g>
<image style="overflow:visible;" width="800" height="800" xlink:href="icono.jpg"  transform="matrix(0.2868 0 0 0.2868 0 0)">
</image>
</svg>
